[
  {
    "pitch": 66,
    "start": 0.337,
    "end": 0.499,
    "velocity": 68
  },
  {
    "pitch": 76,
    "start": 0.383,
    "end": 0.639,
    "velocity": 71
  },
  {
    "pitch": 66,
    "start": 0.499,
    "end": 0.639,
    "velocity": 71
  },
  {
    "pitch": 57,
    "start": 0.499,
    "end": 0.604,
    "velocity": 38
  },
  {
    "pitch": 76,
    "start": 0.801,
    "end": 0.94,
    "velocity": 69
  },
  {
    "pitch": 66,
    "start": 0.801,
    "end": 1.103,
    "velocity": 45
  },
  {
    "pitch": 72,
    "start": 1.103,
    "end": 1.231,
    "velocity": 74
  },
  {
    "pitch": 66,
    "start": 1.103,
    "end": 1.405,
    "velocity": 83
  },
  {
    "pitch": 76,
    "start": 1.3,
    "end": 1.393,
    "velocity": 62
  },
  {
    "pitch": 67,
    "start": 1.556,
    "end": 1.707,
    "velocity": 60
  },
  {
    "pitch": 79,
    "start": 1.567,
    "end": 1.707,
    "velocity": 44
  },
  {
    "pitch": 71,
    "start": 1.567,
    "end": 1.73,
    "velocity": 67
  },
  {
    "pitch": 55,
    "start": 2.172,
    "end": 2.346,
    "velocity": 73
  },
  {
    "pitch": 67,
    "start": 2.184,
    "end": 2.312,
    "velocity": 60
  },
  {
    "pitch": 55,
    "start": 2.788,
    "end": 2.939,
    "velocity": 59
  },
  {
    "pitch": 72,
    "start": 2.811,
    "end": 2.973,
    "velocity": 79
  },
  {
    "pitch": 64,
    "start": 2.823,
    "end": 2.985,
    "velocity": 75
  },
  {
    "pitch": 60,
    "start": 3.287,
    "end": 3.438,
    "velocity": 52
  },
  {
    "pitch": 67,
    "start": 3.299,
    "end": 3.438,
    "velocity": 71
  },
  {
    "pitch": 64,
    "start": 3.74,
    "end": 3.914,
    "velocity": 79
  },
  {
    "pitch": 55,
    "start": 3.74,
    "end": 3.914,
    "velocity": 80
  },
  {
    "pitch": 69,
    "start": 4.205,
    "end": 4.368,
    "velocity": 74
  },
  {
    "pitch": 60,
    "start": 4.205,
    "end": 4.507,
    "velocity": 75
  },
  {
    "pitch": 43,
    "start": 4.507,
    "end": 4.612,
    "velocity": 38
  },
  {
    "pitch": 71,
    "start": 4.519,
    "end": 4.658,
    "velocity": 68
  },
  {
    "pitch": 62,
    "start": 4.519,
    "end": 4.658,
    "velocity": 67
  },
  {
    "pitch": 70,
    "start": 4.832,
    "end": 4.995,
    "velocity": 78
  },
  {
    "pitch": 61,
    "start": 4.832,
    "end": 4.995,
    "velocity": 74
  },
  {
    "pitch": 69,
    "start": 4.995,
    "end": 5.146,
    "velocity": 79
  },
  {
    "pitch": 60,
    "start": 4.995,
    "end": 5.123,
    "velocity": 74
  },
  {
    "pitch": 60,
    "start": 5.285,
    "end": 5.459,
    "velocity": 60
  },
  {
    "pitch": 52,
    "start": 5.285,
    "end": 5.413,
    "velocity": 49
  },
  {
    "pitch": 67,
    "start": 5.297,
    "end": 5.494,
    "velocity": 77
  },
  {
    "pitch": 76,
    "start": 5.494,
    "end": 5.645,
    "velocity": 71
  },
  {
    "pitch": 67,
    "start": 5.494,
    "end": 5.703,
    "velocity": 82
  },
  {
    "pitch": 71,
    "start": 5.703,
    "end": 5.866,
    "velocity": 78
  },
  {
    "pitch": 64,
    "start": 5.703,
    "end": 5.796,
    "velocity": 46
  },
  {
    "pitch": 79,
    "start": 5.715,
    "end": 5.912,
    "velocity": 70
  },
  {
    "pitch": 81,
    "start": 5.912,
    "end": 6.041,
    "velocity": 64
  },
  {
    "pitch": 72,
    "start": 5.912,
    "end": 6.053,
    "velocity": 75
  },
  {
    "pitch": 77,
    "start": 6.215,
    "end": 6.355,
    "velocity": 67
  },
  {
    "pitch": 69,
    "start": 6.215,
    "end": 6.355,
    "velocity": 81
  },
  {
    "pitch": 62,
    "start": 6.215,
    "end": 6.355,
    "velocity": 49
  },
  {
    "pitch": 64,
    "start": 6.355,
    "end": 6.447,
    "velocity": 36
  },
  {
    "pitch": 79,
    "start": 6.366,
    "end": 6.517,
    "velocity": 71
  },
  {
    "pitch": 71,
    "start": 6.413,
    "end": 6.505,
    "velocity": 69
  },
  {
    "pitch": 76,
    "start": 6.691,
    "end": 6.842,
    "velocity": 70
  },
  {
    "pitch": 69,
    "start": 6.691,
    "end": 6.819,
    "velocity": 63
  },
  {
    "pitch": 60,
    "start": 6.691,
    "end": 6.819,
    "velocity": 61
  },
  {
    "pitch": 57,
    "start": 6.691,
    "end": 6.784,
    "velocity": 42
  },
  {
    "pitch": 72,
    "start": 6.993,
    "end": 7.144,
    "velocity": 73
  },
  {
    "pitch": 64,
    "start": 6.993,
    "end": 7.156,
    "velocity": 79
  },
  {
    "pitch": 57,
    "start": 6.993,
    "end": 7.156,
    "velocity": 43
  },
  {
    "pitch": 59,
    "start": 7.156,
    "end": 7.272,
    "velocity": 51
  },
  {
    "pitch": 74,
    "start": 7.167,
    "end": 7.295,
    "velocity": 69
  },
  {
    "pitch": 65,
    "start": 7.167,
    "end": 7.318,
    "velocity": 70
  },
  {
    "pitch": 71,
    "start": 7.318,
    "end": 7.457,
    "velocity": 76
  },
  {
    "pitch": 62,
    "start": 7.318,
    "end": 7.469,
    "velocity": 77
  },
  {
    "pitch": 64,
    "start": 7.771,
    "end": 7.933,
    "velocity": 75
  },
  {
    "pitch": 55,
    "start": 7.771,
    "end": 7.922,
    "velocity": 60
  },
  {
    "pitch": 72,
    "start": 7.783,
    "end": 7.933,
    "velocity": 69
  },
  {
    "pitch": 67,
    "start": 8.237,
    "end": 8.399,
    "velocity": 72
  },
  {
    "pitch": 52,
    "start": 8.237,
    "end": 8.364,
    "velocity": 49
  },
  {
    "pitch": 60,
    "start": 8.248,
    "end": 8.399,
    "velocity": 63
  },
  {
    "pitch": 64,
    "start": 8.713,
    "end": 8.875,
    "velocity": 79
  },
  {
    "pitch": 55,
    "start": 8.713,
    "end": 8.875,
    "velocity": 80
  },
  {
    "pitch": 60,
    "start": 9.154,
    "end": 9.316,
    "velocity": 76
  },
  {
    "pitch": 69,
    "start": 9.165,
    "end": 9.305,
    "velocity": 76
  },
  {
    "pitch": 71,
    "start": 9.479,
    "end": 9.618,
    "velocity": 69
  },
  {
    "pitch": 62,
    "start": 9.479,
    "end": 9.618,
    "velocity": 75
  },
  {
    "pitch": 43,
    "start": 9.479,
    "end": 9.572,
    "velocity": 40
  },
  {
    "pitch": 61,
    "start": 9.769,
    "end": 9.932,
    "velocity": 76
  },
  {
    "pitch": 70,
    "start": 9.781,
    "end": 9.945,
    "velocity": 84
  },
  {
    "pitch": 60,
    "start": 9.933,
    "end": 10.095,
    "velocity": 78
  },
  {
    "pitch": 69,
    "start": 9.945,
    "end": 10.235,
    "velocity": 77
  },
  {
    "pitch": 60,
    "start": 10.235,
    "end": 10.49,
    "velocity": 58
  },
  {
    "pitch": 52,
    "start": 10.235,
    "end": 10.374,
    "velocity": 52
  },
  {
    "pitch": 67,
    "start": 10.246,
    "end": 10.606,
    "velocity": 78
  },
  {
    "pitch": 76,
    "start": 10.467,
    "end": 10.664,
    "velocity": 71
  },
  {
    "pitch": 79,
    "start": 10.664,
    "end": 10.827,
    "velocity": 74
  },
  {
    "pitch": 71,
    "start": 10.664,
    "end": 10.885,
    "velocity": 77
  },
  {
    "pitch": 81,
    "start": 10.885,
    "end": 11.024,
    "velocity": 67
  },
  {
    "pitch": 72,
    "start": 10.92,
    "end": 11.175,
    "velocity": 70
  },
  {
    "pitch": 77,
    "start": 11.175,
    "end": 11.326,
    "velocity": 68
  },
  {
    "pitch": 69,
    "start": 11.175,
    "end": 11.338,
    "velocity": 81
  },
  {
    "pitch": 62,
    "start": 11.175,
    "end": 11.303,
    "velocity": 52
  },
  {
    "pitch": 64,
    "start": 11.303,
    "end": 11.419,
    "velocity": 42
  },
  {
    "pitch": 79,
    "start": 11.338,
    "end": 11.489,
    "velocity": 72
  },
  {
    "pitch": 71,
    "start": 11.349,
    "end": 11.5,
    "velocity": 73
  },
  {
    "pitch": 76,
    "start": 11.651,
    "end": 11.814,
    "velocity": 70
  },
  {
    "pitch": 69,
    "start": 11.651,
    "end": 11.791,
    "velocity": 61
  },
  {
    "pitch": 60,
    "start": 11.651,
    "end": 11.756,
    "velocity": 54
  },
  {
    "pitch": 64,
    "start": 11.954,
    "end": 12.105,
    "velocity": 74
  },
  {
    "pitch": 57,
    "start": 11.954,
    "end": 12.047,
    "velocity": 41
  },
  {
    "pitch": 72,
    "start": 11.966,
    "end": 12.105,
    "velocity": 75
  },
  {
    "pitch": 59,
    "start": 12.07,
    "end": 12.221,
    "velocity": 51
  },
  {
    "pitch": 74,
    "start": 12.117,
    "end": 12.256,
    "velocity": 71
  },
  {
    "pitch": 65,
    "start": 12.117,
    "end": 12.268,
    "velocity": 72
  },
  {
    "pitch": 62,
    "start": 12.268,
    "end": 12.419,
    "velocity": 78
  },
  {
    "pitch": 71,
    "start": 12.279,
    "end": 12.419,
    "velocity": 79
  },
  {
    "pitch": 48,
    "start": 12.732,
    "end": 13.022,
    "velocity": 71
  },
  {
    "pitch": 76,
    "start": 13.022,
    "end": 13.197,
    "velocity": 64
  },
  {
    "pitch": 79,
    "start": 13.034,
    "end": 13.208,
    "velocity": 80
  },
  {
    "pitch": 75,
    "start": 13.208,
    "end": 13.348,
    "velocity": 70
  },
  {
    "pitch": 55,
    "start": 13.231,
    "end": 13.371,
    "velocity": 42
  },
  {
    "pitch": 78,
    "start": 13.243,
    "end": 13.348,
    "velocity": 61
  },
  {
    "pitch": 74,
    "start": 13.348,
    "end": 13.498,
    "velocity": 65
  },
  {
    "pitch": 77,
    "start": 13.359,
    "end": 13.498,
    "velocity": 63
  },
  {
    "pitch": 75,
    "start": 13.498,
    "end": 13.661,
    "velocity": 82
  },
  {
    "pitch": 71,
    "start": 13.51,
    "end": 13.661,
    "velocity": 73
  },
  {
    "pitch": 60,
    "start": 13.649,
    "end": 13.824,
    "velocity": 81
  },
  {
    "pitch": 72,
    "start": 13.824,
    "end": 13.964,
    "velocity": 65
  },
  {
    "pitch": 76,
    "start": 13.858,
    "end": 13.953,
    "velocity": 67
  },
  {
    "pitch": 53,
    "start": 13.953,
    "end": 14.127,
    "velocity": 74
  },
  {
    "pitch": 68,
    "start": 14.127,
    "end": 14.266,
    "velocity": 76
  },
  {
    "pitch": 64,
    "start": 14.127,
    "end": 14.278,
    "velocity": 76
  },
  {
    "pitch": 69,
    "start": 14.278,
    "end": 14.417,
    "velocity": 79
  },
  {
    "pitch": 65,
    "start": 14.278,
    "end": 14.417,
    "velocity": 76
  },
  {
    "pitch": 60,
    "start": 14.371,
    "end": 14.487,
    "velocity": 58
  },
  {
    "pitch": 72,
    "start": 14.487,
    "end": 14.58,
    "velocity": 62
  },
  {
    "pitch": 67,
    "start": 14.487,
    "end": 14.603,
    "velocity": 77
  },
  {
    "pitch": 60,
    "start": 14.498,
    "end": 14.742,
    "velocity": 59
  },
  {
    "pitch": 69,
    "start": 14.742,
    "end": 14.916,
    "velocity": 75
  },
  {
    "pitch": 60,
    "start": 14.742,
    "end": 14.905,
    "velocity": 75
  },
  {
    "pitch": 72,
    "start": 14.905,
    "end": 15.067,
    "velocity": 66
  },
  {
    "pitch": 64,
    "start": 14.905,
    "end": 15.067,
    "velocity": 75
  },
  {
    "pitch": 53,
    "start": 14.916,
    "end": 15.079,
    "velocity": 64
  },
  {
    "pitch": 74,
    "start": 15.079,
    "end": 15.218,
    "velocity": 77
  },
  {
    "pitch": 65,
    "start": 15.079,
    "end": 15.218,
    "velocity": 68
  },
  {
    "pitch": 48,
    "start": 15.218,
    "end": 15.543,
    "velocity": 69
  },
  {
    "pitch": 79,
    "start": 15.543,
    "end": 15.682,
    "velocity": 83
  },
  {
    "pitch": 76,
    "start": 15.543,
    "end": 15.682,
    "velocity": 69
  },
  {
    "pitch": 78,
    "start": 15.682,
    "end": 15.822,
    "velocity": 62
  },
  {
    "pitch": 75,
    "start": 15.694,
    "end": 15.822,
    "velocity": 71
  },
  {
    "pitch": 52,
    "start": 15.694,
    "end": 15.891,
    "velocity": 46
  },
  {
    "pitch": 74,
    "start": 15.891,
    "end": 15.997,
    "velocity": 70
  },
  {
    "pitch": 77,
    "start": 15.893,
    "end": 15.997,
    "velocity": 66
  },
  {
    "pitch": 75,
    "start": 15.997,
    "end": 16.148,
    "velocity": 82
  },
  {
    "pitch": 71,
    "start": 15.997,
    "end": 16.148,
    "velocity": 76
  },
  {
    "pitch": 55,
    "start": 16.125,
    "end": 16.276,
    "velocity": 78
  },
  {
    "pitch": 60,
    "start": 16.241,
    "end": 16.357,
    "velocity": 69
  },
  {
    "pitch": 72,
    "start": 16.299,
    "end": 16.462,
    "velocity": 62
  },
  {
    "pitch": 76,
    "start": 16.357,
    "end": 16.462,
    "velocity": 63
  },
  {
    "pitch": 60,
    "start": 16.357,
    "end": 16.45,
    "velocity": 56
  },
  {
    "pitch": 84,
    "start": 16.624,
    "end": 16.752,
    "velocity": 75
  },
  {
    "pitch": 79,
    "start": 16.624,
    "end": 16.729,
    "velocity": 52
  },
  {
    "pitch": 77,
    "start": 16.624,
    "end": 16.729,
    "velocity": 48
  },
  {
    "pitch": 77,
    "start": 16.926,
    "end": 17.065,
    "velocity": 37
  },
  {
    "pitch": 84,
    "start": 16.961,
    "end": 17.077,
    "velocity": 87
  },
  {
    "pitch": 79,
    "start": 16.972,
    "end": 17.17,
    "velocity": 47
  },
  {
    "pitch": 77,
    "start": 17.065,
    "end": 17.205,
    "velocity": 51
  },
  {
    "pitch": 84,
    "start": 17.077,
    "end": 17.228,
    "velocity": 70
  },
  {
    "pitch": 55,
    "start": 17.379,
    "end": 17.53,
    "velocity": 77
  },
  {
    "pitch": 48,
    "start": 17.681,
    "end": 17.995,
    "velocity": 73
  },
  {
    "pitch": 79,
    "start": 17.995,
    "end": 18.158,
    "velocity": 84
  },
  {
    "pitch": 75,
    "start": 17.995,
    "end": 18.309,
    "velocity": 72
  },
  {
    "pitch": 55,
    "start": 18.158,
    "end": 18.286,
    "velocity": 46
  },
  {
    "pitch": 77,
    "start": 18.204,
    "end": 18.448,
    "velocity": 69
  },
  {
    "pitch": 75,
    "start": 18.379,
    "end": 18.611,
    "velocity": 82
  },
  {
    "pitch": 71,
    "start": 18.471,
    "end": 18.611,
    "velocity": 75
  },
  {
    "pitch": 60,
    "start": 18.611,
    "end": 18.796,
    "velocity": 81
  },
  {
    "pitch": 72,
    "start": 18.796,
    "end": 18.924,
    "velocity": 66
  },
  {
    "pitch": 76,
    "start": 18.831,
    "end": 18.924,
    "velocity": 64
  },
  {
    "pitch": 53,
    "start": 18.831,
    "end": 19.098,
    "velocity": 74
  },
  {
    "pitch": 68,
    "start": 19.098,
    "end": 19.249,
    "velocity": 74
  },
  {
    "pitch": 64,
    "start": 19.098,
    "end": 19.249,
    "velocity": 75
  },
  {
    "pitch": 69,
    "start": 19.249,
    "end": 19.389,
    "velocity": 75
  },
  {
    "pitch": 65,
    "start": 19.249,
    "end": 19.412,
    "velocity": 77
  },
  {
    "pitch": 72,
    "start": 19.412,
    "end": 19.54,
    "velocity": 66
  },
  {
    "pitch": 67,
    "start": 19.412,
    "end": 19.563,
    "velocity": 82
  },
  {
    "pitch": 60,
    "start": 19.412,
    "end": 19.737,
    "velocity": 64
  },
  {
    "pitch": 69,
    "start": 19.737,
    "end": 19.878,
    "velocity": 80
  },
  {
    "pitch": 60,
    "start": 19.737,
    "end": 19.866,
    "velocity": 69
  },
  {
    "pitch": 53,
    "start": 19.866,
    "end": 20.028,
    "velocity": 66
  },
  {
    "pitch": 72,
    "start": 19.878,
    "end": 19.994,
    "velocity": 67
  },
  {
    "pitch": 65,
    "start": 19.878,
    "end": 20.179,
    "velocity": 74
  },
  {
    "pitch": 74,
    "start": 20.063,
    "end": 20.191,
    "velocity": 73
  },
  {
    "pitch": 48,
    "start": 20.191,
    "end": 20.493,
    "velocity": 70
  },
  {
    "pitch": 75,
    "start": 20.493,
    "end": 20.644,
    "velocity": 71
  },
  {
    "pitch": 56,
    "start": 20.493,
    "end": 20.655,
    "velocity": 78
  },
  {
    "pitch": 74,
    "start": 20.946,
    "end": 21.097,
    "velocity": 86
  },
  {
    "pitch": 65,
    "start": 20.946,
    "end": 21.108,
    "velocity": 79
  },
  {
    "pitch": 64,
    "start": 21.41,
    "end": 21.584,
    "velocity": 77
  },
  {
    "pitch": 72,
    "start": 21.422,
    "end": 21.573,
    "velocity": 53
  },
  {
    "pitch": 60,
    "start": 21.48,
    "end": 21.573,
    "velocity": 61
  },
  {
    "pitch": 55,
    "start": 21.922,
    "end": 22.34,
    "velocity": 61
  },
  {
    "pitch": 48,
    "start": 22.34,
    "end": 22.828,
    "velocity": 92
  },
  {
    "pitch": 76,
    "start": 22.979,
    "end": 23.118,
    "velocity": 68
  },
  {
    "pitch": 79,
    "start": 22.99,
    "end": 23.269,
    "velocity": 84
  },
  {
    "pitch": 55,
    "start": 23.141,
    "end": 23.269,
    "velocity": 58
  },
  {
    "pitch": 75,
    "start": 23.176,
    "end": 23.281,
    "velocity": 62
  },
  {
    "pitch": 77,
    "start": 23.281,
    "end": 23.431,
    "velocity": 70
  },
  {
    "pitch": 75,
    "start": 23.327,
    "end": 23.594,
    "velocity": 82
  },
  {
    "pitch": 71,
    "start": 23.455,
    "end": 23.594,
    "velocity": 71
  },
  {
    "pitch": 60,
    "start": 23.582,
    "end": 23.745,
    "velocity": 80
  },
  {
    "pitch": 76,
    "start": 23.745,
    "end": 23.886,
    "velocity": 65
  },
  {
    "pitch": 72,
    "start": 23.745,
    "end": 23.909,
    "velocity": 69
  },
  {
    "pitch": 53,
    "start": 23.803,
    "end": 24.06,
    "velocity": 73
  },
  {
    "pitch": 68,
    "start": 24.06,
    "end": 24.199,
    "velocity": 75
  },
  {
    "pitch": 64,
    "start": 24.06,
    "end": 24.199,
    "velocity": 73
  },
  {
    "pitch": 69,
    "start": 24.199,
    "end": 24.35,
    "velocity": 81
  },
  {
    "pitch": 65,
    "start": 24.211,
    "end": 24.35,
    "velocity": 79
  },
  {
    "pitch": 67,
    "start": 24.35,
    "end": 24.512,
    "velocity": 84
  },
  {
    "pitch": 60,
    "start": 24.35,
    "end": 24.559,
    "velocity": 64
  },
  {
    "pitch": 72,
    "start": 24.362,
    "end": 24.559,
    "velocity": 65
  },
  {
    "pitch": 60,
    "start": 24.559,
    "end": 24.849,
    "velocity": 73
  },
  {
    "pitch": 69,
    "start": 24.675,
    "end": 24.838,
    "velocity": 79
  },
  {
    "pitch": 72,
    "start": 24.838,
    "end": 24.965,
    "velocity": 63
  },
  {
    "pitch": 64,
    "start": 24.838,
    "end": 24.977,
    "velocity": 73
  },
  {
    "pitch": 53,
    "start": 24.838,
    "end": 24.988,
    "velocity": 65
  },
  {
    "pitch": 74,
    "start": 24.988,
    "end": 25.128,
    "velocity": 78
  },
  {
    "pitch": 65,
    "start": 24.988,
    "end": 25.139,
    "velocity": 70
  },
  {
    "pitch": 48,
    "start": 25.139,
    "end": 25.464,
    "velocity": 67
  },
  {
    "pitch": 79,
    "start": 25.464,
    "end": 25.604,
    "velocity": 73
  },
  {
    "pitch": 76,
    "start": 25.464,
    "end": 25.592,
    "velocity": 64
  },
  {
    "pitch": 52,
    "start": 25.557,
    "end": 25.708,
    "velocity": 51
  },
  {
    "pitch": 75,
    "start": 25.604,
    "end": 25.755,
    "velocity": 72
  },
  {
    "pitch": 77,
    "start": 25.65,
    "end": 25.884,
    "velocity": 72
  },
  {
    "pitch": 75,
    "start": 25.766,
    "end": 26.058,
    "velocity": 82
  },
  {
    "pitch": 71,
    "start": 25.907,
    "end": 26.058,
    "velocity": 73
  },
  {
    "pitch": 55,
    "start": 26.023,
    "end": 26.22,
    "velocity": 75
  },
  {
    "pitch": 76,
    "start": 26.22,
    "end": 26.371,
    "velocity": 74
  },
  {
    "pitch": 72,
    "start": 26.22,
    "end": 26.36,
    "velocity": 62
  },
  {
    "pitch": 60,
    "start": 26.22,
    "end": 26.36,
    "velocity": 53
  },
  {
    "pitch": 84,
    "start": 26.534,
    "end": 26.696,
    "velocity": 82
  },
  {
    "pitch": 79,
    "start": 26.534,
    "end": 26.65,
    "velocity": 65
  },
  {
    "pitch": 77,
    "start": 26.534,
    "end": 26.685,
    "velocity": 56
  },
  {
    "pitch": 77,
    "start": 26.847,
    "end": 26.998,
    "velocity": 35
  },
  {
    "pitch": 84,
    "start": 26.894,
    "end": 27.056,
    "velocity": 81
  },
  {
    "pitch": 79,
    "start": 26.894,
    "end": 27.091,
    "velocity": 47
  },
  {
    "pitch": 77,
    "start": 26.998,
    "end": 27.149,
    "velocity": 49
  },
  {
    "pitch": 84,
    "start": 27.056,
    "end": 27.312,
    "velocity": 74
  },
  {
    "pitch": 55,
    "start": 27.312,
    "end": 27.463,
    "velocity": 83
  },
  {
    "pitch": 48,
    "start": 27.625,
    "end": 27.94,
    "velocity": 64
  },
  {
    "pitch": 79,
    "start": 27.94,
    "end": 28.103,
    "velocity": 82
  },
  {
    "pitch": 76,
    "start": 27.94,
    "end": 28.103,
    "velocity": 73
  },
  {
    "pitch": 78,
    "start": 28.103,
    "end": 28.242,
    "velocity": 67
  },
  {
    "pitch": 75,
    "start": 28.103,
    "end": 28.242,
    "velocity": 74
  },
  {
    "pitch": 55,
    "start": 28.103,
    "end": 28.253,
    "velocity": 50
  },
  {
    "pitch": 77,
    "start": 28.253,
    "end": 28.393,
    "velocity": 63
  },
  {
    "pitch": 74,
    "start": 28.253,
    "end": 28.544,
    "velocity": 79
  },
  {
    "pitch": 71,
    "start": 28.404,
    "end": 28.544,
    "velocity": 72
  },
  {
    "pitch": 60,
    "start": 28.532,
    "end": 28.695,
    "velocity": 80
  },
  {
    "pitch": 76,
    "start": 28.695,
    "end": 28.834,
    "velocity": 68
  },
  {
    "pitch": 72,
    "start": 28.706,
    "end": 28.857,
    "velocity": 62
  },
  {
    "pitch": 53,
    "start": 28.846,
    "end": 29.02,
    "velocity": 76
  },
  {
    "pitch": 68,
    "start": 29.02,
    "end": 29.171,
    "velocity": 71
  },
  {
    "pitch": 65,
    "start": 29.02,
    "end": 29.31,
    "velocity": 77
  },
  {
    "pitch": 69,
    "start": 29.171,
    "end": 29.322,
    "velocity": 80
  },
  {
    "pitch": 72,
    "start": 29.322,
    "end": 29.472,
    "velocity": 64
  },
  {
    "pitch": 67,
    "start": 29.322,
    "end": 29.496,
    "velocity": 84
  },
  {
    "pitch": 60,
    "start": 29.322,
    "end": 29.647,
    "velocity": 64
  },
  {
    "pitch": 69,
    "start": 29.647,
    "end": 29.798,
    "velocity": 72
  },
  {
    "pitch": 60,
    "start": 29.647,
    "end": 29.786,
    "velocity": 74
  },
  {
    "pitch": 53,
    "start": 29.786,
    "end": 29.95,
    "velocity": 67
  },
  {
    "pitch": 72,
    "start": 29.798,
    "end": 29.95,
    "velocity": 65
  },
  {
    "pitch": 64,
    "start": 29.798,
    "end": 29.95,
    "velocity": 75
  },
  {
    "pitch": 74,
    "start": 29.95,
    "end": 30.101,
    "velocity": 74
  },
  {
    "pitch": 65,
    "start": 29.95,
    "end": 30.101,
    "velocity": 72
  },
  {
    "pitch": 48,
    "start": 30.101,
    "end": 30.414,
    "velocity": 80
  },
  {
    "pitch": 56,
    "start": 30.414,
    "end": 30.588,
    "velocity": 80
  },
  {
    "pitch": 75,
    "start": 30.426,
    "end": 30.577,
    "velocity": 75
  },
  {
    "pitch": 74,
    "start": 30.89,
    "end": 31.041,
    "velocity": 76
  },
  {
    "pitch": 65,
    "start": 30.89,
    "end": 31.03,
    "velocity": 77
  },
  {
    "pitch": 64,
    "start": 31.355,
    "end": 31.506,
    "velocity": 78
  },
  {
    "pitch": 60,
    "start": 31.355,
    "end": 31.506,
    "velocity": 77
  },
  {
    "pitch": 72,
    "start": 31.366,
    "end": 31.494,
    "velocity": 49
  },
  {
    "pitch": 55,
    "start": 31.773,
    "end": 32.273,
    "velocity": 66
  },
  {
    "pitch": 48,
    "start": 32.273,
    "end": 32.459,
    "velocity": 71
  },
  {
    "pitch": 44,
    "start": 32.459,
    "end": 32.784,
    "velocity": 62
  },
  {
    "pitch": 72,
    "start": 32.575,
    "end": 32.737,
    "velocity": 84
  },
  {
    "pitch": 68,
    "start": 32.575,
    "end": 32.737,
    "velocity": 77
  },
  {
    "pitch": 72,
    "start": 32.737,
    "end": 32.888,
    "velocity": 81
  },
  {
    "pitch": 68,
    "start": 32.737,
    "end": 32.888,
    "velocity": 74
  },
  {
    "pitch": 72,
    "start": 33.051,
    "end": 33.364,
    "velocity": 54
  },
  {
    "pitch": 68,
    "start": 33.051,
    "end": 33.364,
    "velocity": 49
  },
  {
    "pitch": 51,
    "start": 33.051,
    "end": 33.155,
    "velocity": 36
  },
  {
    "pitch": 72,
    "start": 33.364,
    "end": 33.504,
    "velocity": 83
  },
  {
    "pitch": 68,
    "start": 33.364,
    "end": 33.515,
    "velocity": 77
  },
  {
    "pitch": 70,
    "start": 33.515,
    "end": 33.689,
    "velocity": 69
  },
  {
    "pitch": 74,
    "start": 33.562,
    "end": 33.818,
    "velocity": 71
  },
  {
    "pitch": 76,
    "start": 33.818,
    "end": 33.958,
    "velocity": 63
  },
  {
    "pitch": 67,
    "start": 33.818,
    "end": 33.946,
    "velocity": 60
  },
  {
    "pitch": 55,
    "start": 33.818,
    "end": 33.969,
    "velocity": 63
  },
  {
    "pitch": 72,
    "start": 33.969,
    "end": 34.155,
    "velocity": 81
  },
  {
    "pitch": 64,
    "start": 33.969,
    "end": 34.294,
    "velocity": 57
  },
  {
    "pitch": 69,
    "start": 34.294,
    "end": 34.422,
    "velocity": 60
  },
  {
    "pitch": 64,
    "start": 34.294,
    "end": 34.434,
    "velocity": 81
  },
  {
    "pitch": 48,
    "start": 34.422,
    "end": 34.527,
    "velocity": 46
  },
  {
    "pitch": 67,
    "start": 34.445,
    "end": 34.608,
    "velocity": 80
  },
  {
    "pitch": 60,
    "start": 34.445,
    "end": 34.747,
    "velocity": 57
  },
  {
    "pitch": 43,
    "start": 34.747,
    "end": 35.072,
    "velocity": 79
  },
  {
    "pitch": 44,
    "start": 35.072,
    "end": 35.235,
    "velocity": 72
  },
  {
    "pitch": 72,
    "start": 35.096,
    "end": 35.235,
    "velocity": 83
  },
  {
    "pitch": 68,
    "start": 35.096,
    "end": 35.235,
    "velocity": 77
  },
  {
    "pitch": 72,
    "start": 35.235,
    "end": 35.374,
    "velocity": 79
  },
  {
    "pitch": 68,
    "start": 35.235,
    "end": 35.374,
    "velocity": 76
  },
  {
    "pitch": 44,
    "start": 35.235,
    "end": 35.328,
    "velocity": 47
  },
  {
    "pitch": 51,
    "start": 35.548,
    "end": 35.676,
    "velocity": 48
  },
  {
    "pitch": 72,
    "start": 35.56,
    "end": 35.84,
    "velocity": 48
  },
  {
    "pitch": 68,
    "start": 35.56,
    "end": 35.84,
    "velocity": 49
  },
  {
    "pitch": 72,
    "start": 35.84,
    "end": 35.991,
    "velocity": 85
  },
  {
    "pitch": 68,
    "start": 35.84,
    "end": 36.002,
    "velocity": 82
  },
  {
    "pitch": 56,
    "start": 36.002,
    "end": 36.107,
    "velocity": 38
  },
  {
    "pitch": 74,
    "start": 36.026,
    "end": 36.142,
    "velocity": 62
  },
  {
    "pitch": 70,
    "start": 36.026,
    "end": 36.153,
    "velocity": 67
  },
  {
    "pitch": 76,
    "start": 36.153,
    "end": 36.293,
    "velocity": 73
  },
  {
    "pitch": 67,
    "start": 36.153,
    "end": 36.293,
    "velocity": 79
  },
  {
    "pitch": 55,
    "start": 36.258,
    "end": 36.467,
    "velocity": 53
  },
  {
    "pitch": 48,
    "start": 36.757,
    "end": 36.943,
    "velocity": 56
  },
  {
    "pitch": 43,
    "start": 37.187,
    "end": 37.616,
    "velocity": 74
  },
  {
    "pitch": 72,
    "start": 37.558,
    "end": 37.697,
    "velocity": 81
  },
  {
    "pitch": 68,
    "start": 37.558,
    "end": 37.709,
    "velocity": 81
  },
  {
    "pitch": 44,
    "start": 37.628,
    "end": 37.768,
    "velocity": 55
  },
  {
    "pitch": 72,
    "start": 37.697,
    "end": 37.85,
    "velocity": 78
  },
  {
    "pitch": 68,
    "start": 37.709,
    "end": 37.85,
    "velocity": 78
  },
  {
    "pitch": 68,
    "start": 38.012,
    "end": 38.175,
    "velocity": 65
  },
  {
    "pitch": 51,
    "start": 38.012,
    "end": 38.117,
    "velocity": 43
  },
  {
    "pitch": 72,
    "start": 38.024,
    "end": 38.175,
    "velocity": 71
  },
  {
    "pitch": 72,
    "start": 38.337,
    "end": 38.477,
    "velocity": 81
  },
  {
    "pitch": 68,
    "start": 38.337,
    "end": 38.477,
    "velocity": 81
  },
  {
    "pitch": 56,
    "start": 38.477,
    "end": 38.616,
    "velocity": 43
  },
  {
    "pitch": 70,
    "start": 38.488,
    "end": 38.628,
    "velocity": 63
  },
  {
    "pitch": 74,
    "start": 38.535,
    "end": 38.639,
    "velocity": 62
  },
  {
    "pitch": 55,
    "start": 38.79,
    "end": 38.929,
    "velocity": 64
  },
  {
    "pitch": 76,
    "start": 38.802,
    "end": 38.941,
    "velocity": 64
  },
  {
    "pitch": 67,
    "start": 38.802,
    "end": 38.941,
    "velocity": 55
  },
  {
    "pitch": 64,
    "start": 38.941,
    "end": 39.115,
    "velocity": 73
  },
  {
    "pitch": 72,
    "start": 38.953,
    "end": 39.115,
    "velocity": 76
  },
  {
    "pitch": 69,
    "start": 39.266,
    "end": 39.405,
    "velocity": 62
  },
  {
    "pitch": 64,
    "start": 39.266,
    "end": 39.429,
    "velocity": 74
  },
  {
    "pitch": 48,
    "start": 39.405,
    "end": 39.51,
    "velocity": 45
  },
  {
    "pitch": 67,
    "start": 39.429,
    "end": 39.58,
    "velocity": 72
  },
  {
    "pitch": 60,
    "start": 39.429,
    "end": 39.545,
    "velocity": 52
  },
  {
    "pitch": 43,
    "start": 39.731,
    "end": 39.86,
    "velocity": 59
  },
  {
    "pitch": 66,
    "start": 40.034,
    "end": 40.185,
    "velocity": 74
  },
  {
    "pitch": 76,
    "start": 40.08,
    "end": 40.196,
    "velocity": 76
  },
  {
    "pitch": 57,
    "start": 40.173,
    "end": 40.289,
    "velocity": 45
  },
  {
    "pitch": 66,
    "start": 40.185,
    "end": 40.324,
    "velocity": 72
  },
  {
    "pitch": 76,
    "start": 40.196,
    "end": 40.312,
    "velocity": 66
  },
  {
    "pitch": 66,
    "start": 40.486,
    "end": 40.649,
    "velocity": 66
  },
  {
    "pitch": 76,
    "start": 40.533,
    "end": 40.626,
    "velocity": 61
  },
  {
    "pitch": 72,
    "start": 40.8,
    "end": 40.939,
    "velocity": 78
  },
  {
    "pitch": 66,
    "start": 40.8,
    "end": 40.962,
    "velocity": 86
  },
  {
    "pitch": 38,
    "start": 40.8,
    "end": 40.962,
    "velocity": 38
  },
  {
    "pitch": 66,
    "start": 40.962,
    "end": 41.113,
    "velocity": 66
  },
  {
    "pitch": 57,
    "start": 40.962,
    "end": 41.055,
    "velocity": 38
  },
  {
    "pitch": 76,
    "start": 40.997,
    "end": 41.102,
    "velocity": 67
  },
  {
    "pitch": 79,
    "start": 41.276,
    "end": 41.404,
    "velocity": 48
  },
  {
    "pitch": 71,
    "start": 41.276,
    "end": 41.427,
    "velocity": 69
  },
  {
    "pitch": 67,
    "start": 41.276,
    "end": 41.415,
    "velocity": 69
  },
  {
    "pitch": 55,
    "start": 41.869,
    "end": 42.032,
    "velocity": 76
  },
  {
    "pitch": 67,
    "start": 41.881,
    "end": 42.009,
    "velocity": 57
  },
  {
    "pitch": 55,
    "start": 42.496,
    "end": 42.659,
    "velocity": 57
  },
  {
    "pitch": 64,
    "start": 42.508,
    "end": 42.682,
    "velocity": 75
  },
  {
    "pitch": 72,
    "start": 42.519,
    "end": 42.694,
    "velocity": 75
  },
  {
    "pitch": 67,
    "start": 42.995,
    "end": 43.146,
    "velocity": 71
  },
  {
    "pitch": 60,
    "start": 42.995,
    "end": 43.135,
    "velocity": 62
  },
  {
    "pitch": 52,
    "start": 42.995,
    "end": 43.112,
    "velocity": 48
  },
  {
    "pitch": 64,
    "start": 43.46,
    "end": 43.622,
    "velocity": 76
  },
  {
    "pitch": 55,
    "start": 43.46,
    "end": 43.622,
    "velocity": 76
  },
  {
    "pitch": 60,
    "start": 43.914,
    "end": 44.053,
    "velocity": 74
  },
  {
    "pitch": 69,
    "start": 43.926,
    "end": 44.193,
    "velocity": 70
  },
  {
    "pitch": 62,
    "start": 44.193,
    "end": 44.355,
    "velocity": 78
  },
  {
    "pitch": 71,
    "start": 44.239,
    "end": 44.355,
    "velocity": 69
  },
  {
    "pitch": 61,
    "start": 44.518,
    "end": 44.669,
    "velocity": 77
  },
  {
    "pitch": 70,
    "start": 44.529,
    "end": 44.68,
    "velocity": 79
  },
  {
    "pitch": 60,
    "start": 44.669,
    "end": 44.843,
    "velocity": 79
  },
  {
    "pitch": 69,
    "start": 44.68,
    "end": 44.831,
    "velocity": 79
  },
  {
    "pitch": 60,
    "start": 44.982,
    "end": 45.156,
    "velocity": 61
  },
  {
    "pitch": 67,
    "start": 44.994,
    "end": 45.191,
    "velocity": 76
  },
  {
    "pitch": 52,
    "start": 44.994,
    "end": 45.191,
    "velocity": 58
  },
  {
    "pitch": 76,
    "start": 45.191,
    "end": 45.354,
    "velocity": 75
  },
  {
    "pitch": 67,
    "start": 45.191,
    "end": 45.412,
    "velocity": 82
  },
  {
    "pitch": 79,
    "start": 45.412,
    "end": 45.563,
    "velocity": 69
  },
  {
    "pitch": 71,
    "start": 45.412,
    "end": 45.609,
    "velocity": 85
  },
  {
    "pitch": 72,
    "start": 45.609,
    "end": 45.761,
    "velocity": 74
  },
  {
    "pitch": 81,
    "start": 45.621,
    "end": 45.75,
    "velocity": 68
  },
  {
    "pitch": 77,
    "start": 45.924,
    "end": 46.063,
    "velocity": 70
  },
  {
    "pitch": 69,
    "start": 45.924,
    "end": 46.075,
    "velocity": 82
  },
  {
    "pitch": 62,
    "start": 45.924,
    "end": 46.063,
    "velocity": 44
  },
  {
    "pitch": 64,
    "start": 46.063,
    "end": 46.156,
    "velocity": 40
  },
  {
    "pitch": 71,
    "start": 46.075,
    "end": 46.226,
    "velocity": 75
  },
  {
    "pitch": 79,
    "start": 46.11,
    "end": 46.214,
    "velocity": 68
  },
  {
    "pitch": 60,
    "start": 46.388,
    "end": 46.493,
    "velocity": 50
  },
  {
    "pitch": 76,
    "start": 46.4,
    "end": 46.539,
    "velocity": 68
  },
  {
    "pitch": 69,
    "start": 46.4,
    "end": 46.516,
    "velocity": 58
  },
  {
    "pitch": 64,
    "start": 46.69,
    "end": 46.853,
    "velocity": 77
  },
  {
    "pitch": 72,
    "start": 46.702,
    "end": 46.853,
    "velocity": 74
  },
  {
    "pitch": 59,
    "start": 46.853,
    "end": 46.992,
    "velocity": 51
  },
  {
    "pitch": 74,
    "start": 46.864,
    "end": 46.992,
    "velocity": 65
  },
  {
    "pitch": 65,
    "start": 46.864,
    "end": 47.003,
    "velocity": 67
  },
  {
    "pitch": 43,
    "start": 47.003,
    "end": 47.12,
    "velocity": 46
  },
  {
    "pitch": 71,
    "start": 47.015,
    "end": 47.166,
    "velocity": 76
  },
  {
    "pitch": 62,
    "start": 47.015,
    "end": 47.166,
    "velocity": 77
  },
  {
    "pitch": 72,
    "start": 47.48,
    "end": 47.642,
    "velocity": 72
  },
  {
    "pitch": 64,
    "start": 47.48,
    "end": 47.642,
    "velocity": 75
  },
  {
    "pitch": 55,
    "start": 47.48,
    "end": 47.619,
    "velocity": 62
  },
  {
    "pitch": 67,
    "start": 47.922,
    "end": 48.073,
    "velocity": 78
  },
  {
    "pitch": 60,
    "start": 47.922,
    "end": 48.061,
    "velocity": 62
  },
  {
    "pitch": 52,
    "start": 47.922,
    "end": 48.026,
    "velocity": 36
  },
  {
    "pitch": 55,
    "start": 48.386,
    "end": 48.549,
    "velocity": 74
  },
  {
    "pitch": 64,
    "start": 48.398,
    "end": 48.549,
    "velocity": 79
  },
  {
    "pitch": 69,
    "start": 48.862,
    "end": 49.013,
    "velocity": 75
  },
  {
    "pitch": 60,
    "start": 48.862,
    "end": 49.164,
    "velocity": 70
  },
  {
    "pitch": 43,
    "start": 49.164,
    "end": 49.28,
    "velocity": 44
  },
  {
    "pitch": 71,
    "start": 49.176,
    "end": 49.338,
    "velocity": 74
  },
  {
    "pitch": 62,
    "start": 49.176,
    "end": 49.338,
    "velocity": 79
  },
  {
    "pitch": 42,
    "start": 49.501,
    "end": 49.605,
    "velocity": 43
  },
  {
    "pitch": 70,
    "start": 49.513,
    "end": 49.652,
    "velocity": 84
  },
  {
    "pitch": 60,
    "start": 49.513,
    "end": 49.792,
    "velocity": 73
  },
  {
    "pitch": 69,
    "start": 49.652,
    "end": 49.943,
    "velocity": 81
  },
  {
    "pitch": 52,
    "start": 49.943,
    "end": 50.071,
    "velocity": 50
  },
  {
    "pitch": 60,
    "start": 49.955,
    "end": 50.152,
    "velocity": 55
  },
  {
    "pitch": 67,
    "start": 49.967,
    "end": 50.164,
    "velocity": 75
  },
  {
    "pitch": 76,
    "start": 50.164,
    "end": 50.315,
    "velocity": 72
  },
  {
    "pitch": 67,
    "start": 50.164,
    "end": 50.361,
    "velocity": 76
  },
  {
    "pitch": 79,
    "start": 50.361,
    "end": 50.524,
    "velocity": 69
  },
  {
    "pitch": 71,
    "start": 50.361,
    "end": 50.524,
    "velocity": 79
  },
  {
    "pitch": 64,
    "start": 50.361,
    "end": 50.582,
    "velocity": 44
  },
  {
    "pitch": 72,
    "start": 50.582,
    "end": 50.733,
    "velocity": 74
  },
  {
    "pitch": 81,
    "start": 50.628,
    "end": 50.733,
    "velocity": 71
  },
  {
    "pitch": 69,
    "start": 50.884,
    "end": 51.058,
    "velocity": 80
  },
  {
    "pitch": 77,
    "start": 50.895,
    "end": 51.046,
    "velocity": 70
  },
  {
    "pitch": 62,
    "start": 50.895,
    "end": 51.012,
    "velocity": 51
  },
  {
    "pitch": 64,
    "start": 51.012,
    "end": 51.139,
    "velocity": 36
  },
  {
    "pitch": 79,
    "start": 51.058,
    "end": 51.197,
    "velocity": 72
  },
  {
    "pitch": 71,
    "start": 51.058,
    "end": 51.197,
    "velocity": 77
  },
  {
    "pitch": 60,
    "start": 51.348,
    "end": 51.476,
    "velocity": 53
  },
  {
    "pitch": 76,
    "start": 51.36,
    "end": 51.522,
    "velocity": 70
  },
  {
    "pitch": 69,
    "start": 51.36,
    "end": 51.476,
    "velocity": 56
  },
  {
    "pitch": 57,
    "start": 51.36,
    "end": 51.476,
    "velocity": 45
  },
  {
    "pitch": 72,
    "start": 51.663,
    "end": 51.814,
    "velocity": 68
  },
  {
    "pitch": 64,
    "start": 51.663,
    "end": 51.825,
    "velocity": 76
  },
  {
    "pitch": 74,
    "start": 51.825,
    "end": 51.942,
    "velocity": 67
  },
  {
    "pitch": 65,
    "start": 51.825,
    "end": 51.953,
    "velocity": 70
  },
  {
    "pitch": 59,
    "start": 51.825,
    "end": 51.965,
    "velocity": 53
  },
  {
    "pitch": 71,
    "start": 51.965,
    "end": 52.116,
    "velocity": 76
  },
  {
    "pitch": 62,
    "start": 51.965,
    "end": 52.116,
    "velocity": 74
  },
  {
    "pitch": 48,
    "start": 52.418,
    "end": 52.592,
    "velocity": 77
  },
  {
    "pitch": 76,
    "start": 52.429,
    "end": 52.58,
    "velocity": 74
  },
  {
    "pitch": 72,
    "start": 52.429,
    "end": 52.592,
    "velocity": 83
  },
  {
    "pitch": 67,
    "start": 52.429,
    "end": 52.592,
    "velocity": 35
  },
  {
    "pitch": 72,
    "start": 52.592,
    "end": 52.731,
    "velocity": 68
  },
  {
    "pitch": 69,
    "start": 52.592,
    "end": 52.743,
    "velocity": 74
  },
  {
    "pitch": 67,
    "start": 52.905,
    "end": 53.045,
    "velocity": 70
  },
  {
    "pitch": 64,
    "start": 52.905,
    "end": 53.045,
    "velocity": 75
  },
  {
    "pitch": 55,
    "start": 53.033,
    "end": 53.219,
    "velocity": 52
  },
  {
    "pitch": 68,
    "start": 53.37,
    "end": 53.532,
    "velocity": 76
  },
  {
    "pitch": 64,
    "start": 53.37,
    "end": 53.532,
    "velocity": 75
  },
  {
    "pitch": 60,
    "start": 53.37,
    "end": 53.497,
    "velocity": 54
  },
  {
    "pitch": 69,
    "start": 53.661,
    "end": 53.824,
    "velocity": 79
  },
  {
    "pitch": 65,
    "start": 53.661,
    "end": 53.8,
    "velocity": 73
  },
  {
    "pitch": 53,
    "start": 53.661,
    "end": 53.963,
    "velocity": 79
  },
  {
    "pitch": 72,
    "start": 53.824,
    "end": 54.137,
    "velocity": 56
  },
  {
    "pitch": 77,
    "start": 53.835,
    "end": 53.975,
    "velocity": 69
  },
  {
    "pitch": 53,
    "start": 53.963,
    "end": 54.16,
    "velocity": 69
  },
  {
    "pitch": 77,
    "start": 54.137,
    "end": 54.288,
    "velocity": 73
  },
  {
    "pitch": 72,
    "start": 54.137,
    "end": 54.3,
    "velocity": 85
  },
  {
    "pitch": 60,
    "start": 54.288,
    "end": 54.439,
    "velocity": 80
  },
  {
    "pitch": 69,
    "start": 54.311,
    "end": 54.439,
    "velocity": 63
  },
  {
    "pitch": 65,
    "start": 54.311,
    "end": 54.462,
    "velocity": 67
  },
  {
    "pitch": 60,
    "start": 54.439,
    "end": 54.602,
    "velocity": 78
  },
  {
    "pitch": 53,
    "start": 54.59,
    "end": 54.915,
    "velocity": 69
  },
  {
    "pitch": 50,
    "start": 54.915,
    "end": 55.031,
    "velocity": 53
  },
  {
    "pitch": 71,
    "start": 54.927,
    "end": 55.089,
    "velocity": 72
  },
  {
    "pitch": 67,
    "start": 54.927,
    "end": 55.136,
    "velocity": 69
  },
  {
    "pitch": 81,
    "start": 55.136,
    "end": 55.333,
    "velocity": 69
  },
  {
    "pitch": 77,
    "start": 55.136,
    "end": 55.333,
    "velocity": 73
  },
  {
    "pitch": 81,
    "start": 55.333,
    "end": 55.6,
    "velocity": 65
  },
  {
    "pitch": 77,
    "start": 55.333,
    "end": 55.6,
    "velocity": 62
  },
  {
    "pitch": 53,
    "start": 55.391,
    "end": 55.6,
    "velocity": 65
  },
  {
    "pitch": 81,
    "start": 55.6,
    "end": 55.683,
    "velocity": 68
  },
  {
    "pitch": 77,
    "start": 55.6,
    "end": 55.729,
    "velocity": 61
  },
  {
    "pitch": 79,
    "start": 55.729,
    "end": 55.868,
    "velocity": 72
  },
  {
    "pitch": 76,
    "start": 55.729,
    "end": 55.868,
    "velocity": 65
  },
  {
    "pitch": 59,
    "start": 55.845,
    "end": 55.973,
    "velocity": 64
  },
  {
    "pitch": 77,
    "start": 55.938,
    "end": 56.101,
    "velocity": 71
  },
  {
    "pitch": 74,
    "start": 55.938,
    "end": 56.147,
    "velocity": 82
  },
  {
    "pitch": 55,
    "start": 56.147,
    "end": 56.263,
    "velocity": 51
  },
  {
    "pitch": 76,
    "start": 56.159,
    "end": 56.298,
    "velocity": 73
  },
  {
    "pitch": 72,
    "start": 56.159,
    "end": 56.449,
    "velocity": 85
  },
  {
    "pitch": 69,
    "start": 56.31,
    "end": 56.449,
    "velocity": 75
  },
  {
    "pitch": 55,
    "start": 56.426,
    "end": 56.623,
    "velocity": 79
  },
  {
    "pitch": 69,
    "start": 56.623,
    "end": 56.762,
    "velocity": 73
  },
  {
    "pitch": 65,
    "start": 56.623,
    "end": 56.774,
    "velocity": 77
  },
  {
    "pitch": 67,
    "start": 56.774,
    "end": 56.936,
    "velocity": 72
  },
  {
    "pitch": 60,
    "start": 56.774,
    "end": 56.902,
    "velocity": 47
  },
  {
    "pitch": 64,
    "start": 56.82,
    "end": 56.925,
    "velocity": 64
  },
  {
    "pitch": 60,
    "start": 56.902,
    "end": 57.087,
    "velocity": 81
  },
  {
    "pitch": 55,
    "start": 57.087,
    "end": 57.389,
    "velocity": 74
  },
  {
    "pitch": 76,
    "start": 57.389,
    "end": 57.563,
    "velocity": 76
  },
  {
    "pitch": 72,
    "start": 57.389,
    "end": 57.575,
    "velocity": 82
  },
  {
    "pitch": 48,
    "start": 57.389,
    "end": 57.563,
    "velocity": 74
  },
  {
    "pitch": 69,
    "start": 57.563,
    "end": 57.716,
    "velocity": 75
  },
  {
    "pitch": 72,
    "start": 57.575,
    "end": 57.692,
    "velocity": 72
  },
  {
    "pitch": 67,
    "start": 57.855,
    "end": 58.017,
    "velocity": 70
  },
  {
    "pitch": 64,
    "start": 57.855,
    "end": 58.017,
    "velocity": 74
  },
  {
    "pitch": 55,
    "start": 57.855,
    "end": 58.319,
    "velocity": 66
  },
  {
    "pitch": 68,
    "start": 58.319,
    "end": 58.482,
    "velocity": 74
  },
  {
    "pitch": 64,
    "start": 58.319,
    "end": 58.493,
    "velocity": 72
  },
  {
    "pitch": 60,
    "start": 58.319,
    "end": 58.459,
    "velocity": 58
  },
  {
    "pitch": 69,
    "start": 58.644,
    "end": 58.784,
    "velocity": 79
  },
  {
    "pitch": 65,
    "start": 58.644,
    "end": 58.772,
    "velocity": 66
  },
  {
    "pitch": 53,
    "start": 58.644,
    "end": 58.923,
    "velocity": 83
  },
  {
    "pitch": 77,
    "start": 58.795,
    "end": 58.946,
    "velocity": 70
  },
  {
    "pitch": 72,
    "start": 58.795,
    "end": 59.12,
    "velocity": 58
  },
  {
    "pitch": 53,
    "start": 58.923,
    "end": 59.155,
    "velocity": 70
  },
  {
    "pitch": 77,
    "start": 59.12,
    "end": 59.248,
    "velocity": 74
  },
  {
    "pitch": 72,
    "start": 59.12,
    "end": 59.26,
    "velocity": 79
  },
  {
    "pitch": 69,
    "start": 59.26,
    "end": 59.434,
    "velocity": 72
  },
  {
    "pitch": 65,
    "start": 59.271,
    "end": 59.445,
    "velocity": 75
  },
  {
    "pitch": 60,
    "start": 59.271,
    "end": 59.585,
    "velocity": 79
  },
  {
    "pitch": 53,
    "start": 59.562,
    "end": 59.876,
    "velocity": 69
  },
  {
    "pitch": 71,
    "start": 59.876,
    "end": 60.027,
    "velocity": 78
  },
  {
    "pitch": 67,
    "start": 59.876,
    "end": 60.004,
    "velocity": 65
  },
  {
    "pitch": 55,
    "start": 59.876,
    "end": 60.027,
    "velocity": 72
  },
  {
    "pitch": 77,
    "start": 60.027,
    "end": 60.178,
    "velocity": 70
  },
  {
    "pitch": 74,
    "start": 60.027,
    "end": 60.178,
    "velocity": 81
  },
  {
    "pitch": 55,
    "start": 60.329,
    "end": 60.492,
    "velocity": 70
  },
  {
    "pitch": 77,
    "start": 60.341,
    "end": 60.492,
    "velocity": 75
  },
  {
    "pitch": 74,
    "start": 60.341,
    "end": 60.492,
    "velocity": 75
  },
  {
    "pitch": 77,
    "start": 60.492,
    "end": 60.643,
    "velocity": 60
  },
  {
    "pitch": 74,
    "start": 60.492,
    "end": 60.643,
    "velocity": 63
  },
  {
    "pitch": 55,
    "start": 60.492,
    "end": 60.701,
    "velocity": 65
  },
  {
    "pitch": 76,
    "start": 60.701,
    "end": 60.863,
    "velocity": 58
  },
  {
    "pitch": 72,
    "start": 60.701,
    "end": 60.875,
    "velocity": 72
  },
  {
    "pitch": 57,
    "start": 60.701,
    "end": 60.921,
    "velocity": 71
  },
  {
    "pitch": 74,
    "start": 60.921,
    "end": 61.072,
    "velocity": 74
  },
  {
    "pitch": 71,
    "start": 60.921,
    "end": 61.061,
    "velocity": 58
  },
  {
    "pitch": 59,
    "start": 60.921,
    "end": 61.119,
    "velocity": 75
  },
  {
    "pitch": 72,
    "start": 61.119,
    "end": 61.281,
    "velocity": 70
  },
  {
    "pitch": 67,
    "start": 61.119,
    "end": 61.293,
    "velocity": 86
  },
  {
    "pitch": 60,
    "start": 61.119,
    "end": 61.281,
    "velocity": 72
  },
  {
    "pitch": 64,
    "start": 61.281,
    "end": 61.583,
    "velocity": 55
  },
  {
    "pitch": 55,
    "start": 61.409,
    "end": 61.583,
    "velocity": 77
  },
  {
    "pitch": 64,
    "start": 61.583,
    "end": 61.747,
    "velocity": 80
  },
  {
    "pitch": 48,
    "start": 61.735,
    "end": 61.921,
    "velocity": 69
  },
  {
    "pitch": 60,
    "start": 61.747,
    "end": 61.886,
    "velocity": 60
  },
  {
    "pitch": 76,
    "start": 62.362,
    "end": 62.501,
    "velocity": 72
  },
  {
    "pitch": 48,
    "start": 62.362,
    "end": 62.525,
    "velocity": 73
  },
  {
    "pitch": 72,
    "start": 62.374,
    "end": 62.525,
    "velocity": 85
  },
  {
    "pitch": 69,
    "start": 62.513,
    "end": 62.687,
    "velocity": 74
  },
  {
    "pitch": 72,
    "start": 62.525,
    "end": 62.827,
    "velocity": 68
  },
  {
    "pitch": 64,
    "start": 62.827,
    "end": 62.977,
    "velocity": 72
  },
  {
    "pitch": 67,
    "start": 62.838,
    "end": 62.966,
    "velocity": 67
  },
  {
    "pitch": 55,
    "start": 62.838,
    "end": 63.291,
    "velocity": 61
  },
  {
    "pitch": 60,
    "start": 63.291,
    "end": 63.43,
    "velocity": 57
  },
  {
    "pitch": 68,
    "start": 63.303,
    "end": 63.465,
    "velocity": 75
  },
  {
    "pitch": 64,
    "start": 63.303,
    "end": 63.594,
    "velocity": 70
  },
  {
    "pitch": 69,
    "start": 63.594,
    "end": 63.733,
    "velocity": 80
  },
  {
    "pitch": 65,
    "start": 63.594,
    "end": 63.722,
    "velocity": 64
  },
  {
    "pitch": 53,
    "start": 63.594,
    "end": 63.861,
    "velocity": 74
  },
  {
    "pitch": 77,
    "start": 63.745,
    "end": 63.884,
    "velocity": 76
  },
  {
    "pitch": 72,
    "start": 63.745,
    "end": 63.908,
    "velocity": 82
  },
  {
    "pitch": 53,
    "start": 63.861,
    "end": 64.07,
    "velocity": 78
  },
  {
    "pitch": 77,
    "start": 64.07,
    "end": 64.198,
    "velocity": 75
  },
  {
    "pitch": 72,
    "start": 64.07,
    "end": 64.209,
    "velocity": 84
  },
  {
    "pitch": 60,
    "start": 64.209,
    "end": 64.349,
    "velocity": 86
  },
  {
    "pitch": 69,
    "start": 64.221,
    "end": 64.36,
    "velocity": 64
  },
  {
    "pitch": 65,
    "start": 64.221,
    "end": 64.372,
    "velocity": 71
  },
  {
    "pitch": 60,
    "start": 64.349,
    "end": 64.535,
    "velocity": 81
  },
  {
    "pitch": 53,
    "start": 64.535,
    "end": 64.836,
    "velocity": 69
  },
  {
    "pitch": 71,
    "start": 64.836,
    "end": 65.011,
    "velocity": 77
  },
  {
    "pitch": 67,
    "start": 64.836,
    "end": 64.999,
    "velocity": 73
  },
  {
    "pitch": 50,
    "start": 64.836,
    "end": 65.045,
    "velocity": 36
  },
  {
    "pitch": 81,
    "start": 65.045,
    "end": 65.289,
    "velocity": 70
  },
  {
    "pitch": 77,
    "start": 65.057,
    "end": 65.521,
    "velocity": 68
  },
  {
    "pitch": 53,
    "start": 65.254,
    "end": 65.428,
    "velocity": 68
  },
  {
    "pitch": 81,
    "start": 65.289,
    "end": 65.521,
    "velocity": 61
  },
  {
    "pitch": 55,
    "start": 65.475,
    "end": 65.557,
    "velocity": 40
  },
  {
    "pitch": 81,
    "start": 65.521,
    "end": 65.616,
    "velocity": 62
  },
  {
    "pitch": 77,
    "start": 65.521,
    "end": 65.674,
    "velocity": 68
  },
  {
    "pitch": 79,
    "start": 65.674,
    "end": 65.813,
    "velocity": 71
  },
  {
    "pitch": 76,
    "start": 65.674,
    "end": 65.801,
    "velocity": 62
  },
  {
    "pitch": 59,
    "start": 65.766,
    "end": 65.906,
    "velocity": 72
  },
  {
    "pitch": 77,
    "start": 65.883,
    "end": 66.033,
    "velocity": 67
  },
  {
    "pitch": 74,
    "start": 65.883,
    "end": 66.08,
    "velocity": 81
  },
  {
    "pitch": 76,
    "start": 66.08,
    "end": 66.219,
    "velocity": 69
  },
  {
    "pitch": 55,
    "start": 66.08,
    "end": 66.196,
    "velocity": 59
  },
  {
    "pitch": 72,
    "start": 66.092,
    "end": 66.405,
    "velocity": 85
  },
  {
    "pitch": 69,
    "start": 66.242,
    "end": 66.556,
    "velocity": 52
  },
  {
    "pitch": 55,
    "start": 66.382,
    "end": 66.556,
    "velocity": 80
  },
  {
    "pitch": 69,
    "start": 66.556,
    "end": 66.695,
    "velocity": 75
  },
  {
    "pitch": 65,
    "start": 66.556,
    "end": 66.707,
    "velocity": 73
  },
  {
    "pitch": 67,
    "start": 66.707,
    "end": 66.881,
    "velocity": 72
  },
  {
    "pitch": 64,
    "start": 66.707,
    "end": 66.881,
    "velocity": 70
  },
  {
    "pitch": 60,
    "start": 66.707,
    "end": 67.009,
    "velocity": 79
  },
  {
    "pitch": 55,
    "start": 67.009,
    "end": 67.183,
    "velocity": 72
  },
  {
    "pitch": 76,
    "start": 67.345,
    "end": 67.473,
    "velocity": 64
  },
  {
    "pitch": 72,
    "start": 67.345,
    "end": 67.485,
    "velocity": 85
  },
  {
    "pitch": 48,
    "start": 67.345,
    "end": 67.508,
    "velocity": 69
  },
  {
    "pitch": 72,
    "start": 67.485,
    "end": 67.614,
    "velocity": 72
  },
  {
    "pitch": 69,
    "start": 67.485,
    "end": 67.625,
    "velocity": 74
  },
  {
    "pitch": 67,
    "start": 67.788,
    "end": 67.927,
    "velocity": 69
  },
  {
    "pitch": 64,
    "start": 67.788,
    "end": 67.939,
    "velocity": 74
  },
  {
    "pitch": 55,
    "start": 67.788,
    "end": 68.101,
    "velocity": 53
  },
  {
    "pitch": 68,
    "start": 68.252,
    "end": 68.415,
    "velocity": 72
  },
  {
    "pitch": 64,
    "start": 68.252,
    "end": 68.426,
    "velocity": 76
  },
  {
    "pitch": 60,
    "start": 68.252,
    "end": 68.38,
    "velocity": 56
  },
  {
    "pitch": 69,
    "start": 68.554,
    "end": 68.717,
    "velocity": 78
  },
  {
    "pitch": 65,
    "start": 68.554,
    "end": 68.728,
    "velocity": 71
  },
  {
    "pitch": 53,
    "start": 68.554,
    "end": 68.717,
    "velocity": 71
  },
  {
    "pitch": 77,
    "start": 68.717,
    "end": 68.868,
    "velocity": 74
  },
  {
    "pitch": 72,
    "start": 68.717,
    "end": 69.03,
    "velocity": 54
  },
  {
    "pitch": 53,
    "start": 68.717,
    "end": 69.053,
    "velocity": 71
  },
  {
    "pitch": 77,
    "start": 69.03,
    "end": 69.181,
    "velocity": 72
  },
  {
    "pitch": 72,
    "start": 69.03,
    "end": 69.193,
    "velocity": 85
  },
  {
    "pitch": 65,
    "start": 69.193,
    "end": 69.355,
    "velocity": 69
  },
  {
    "pitch": 60,
    "start": 69.193,
    "end": 69.32,
    "velocity": 83
  },
  {
    "pitch": 69,
    "start": 69.204,
    "end": 69.344,
    "velocity": 69
  },
  {
    "pitch": 60,
    "start": 69.32,
    "end": 69.506,
    "velocity": 78
  },
  {
    "pitch": 53,
    "start": 69.495,
    "end": 69.647,
    "velocity": 67
  },
  {
    "pitch": 55,
    "start": 69.798,
    "end": 69.949,
    "velocity": 67
  },
  {
    "pitch": 71,
    "start": 69.809,
    "end": 69.949,
    "velocity": 79
  },
  {
    "pitch": 67,
    "start": 69.809,
    "end": 69.972,
    "velocity": 68
  },
  {
    "pitch": 77,
    "start": 69.972,
    "end": 70.274,
    "velocity": 49
  },
  {
    "pitch": 74,
    "start": 69.972,
    "end": 70.274,
    "velocity": 53
  },
  {
    "pitch": 55,
    "start": 70.262,
    "end": 70.425,
    "velocity": 62
  },
  {
    "pitch": 77,
    "start": 70.274,
    "end": 70.483,
    "velocity": 80
  },
  {
    "pitch": 74,
    "start": 70.274,
    "end": 70.483,
    "velocity": 76
  },
  {
    "pitch": 55,
    "start": 70.425,
    "end": 70.564,
    "velocity": 57
  },
  {
    "pitch": 77,
    "start": 70.483,
    "end": 70.587,
    "velocity": 69
  },
  {
    "pitch": 74,
    "start": 70.483,
    "end": 70.645,
    "velocity": 68
  },
  {
    "pitch": 76,
    "start": 70.645,
    "end": 70.785,
    "velocity": 57
  },
  {
    "pitch": 57,
    "start": 70.645,
    "end": 70.785,
    "velocity": 72
  },
  {
    "pitch": 72,
    "start": 70.657,
    "end": 70.843,
    "velocity": 69
  },
  {
    "pitch": 59,
    "start": 70.843,
    "end": 70.994,
    "velocity": 71
  },
  {
    "pitch": 74,
    "start": 70.854,
    "end": 71.005,
    "velocity": 79
  },
  {
    "pitch": 71,
    "start": 70.854,
    "end": 71.052,
    "velocity": 60
  },
  {
    "pitch": 67,
    "start": 71.052,
    "end": 71.226,
    "velocity": 85
  },
  {
    "pitch": 72,
    "start": 71.063,
    "end": 71.214,
    "velocity": 68
  },
  {
    "pitch": 60,
    "start": 71.063,
    "end": 71.214,
    "velocity": 66
  },
  {
    "pitch": 64,
    "start": 71.214,
    "end": 71.353,
    "velocity": 75
  },
  {
    "pitch": 55,
    "start": 71.33,
    "end": 71.516,
    "velocity": 76
  },
  {
    "pitch": 64,
    "start": 71.516,
    "end": 71.657,
    "velocity": 82
  },
  {
    "pitch": 60,
    "start": 71.657,
    "end": 71.819,
    "velocity": 60
  },
  {
    "pitch": 48,
    "start": 71.691,
    "end": 71.854,
    "velocity": 69
  },
  {
    "pitch": 44,
    "start": 72.272,
    "end": 72.504,
    "velocity": 59
  },
  {
    "pitch": 72,
    "start": 72.283,
    "end": 72.446,
    "velocity": 80
  },
  {
    "pitch": 68,
    "start": 72.283,
    "end": 72.458,
    "velocity": 76
  },
  {
    "pitch": 72,
    "start": 72.446,
    "end": 72.585,
    "velocity": 81
  },
  {
    "pitch": 68,
    "start": 72.458,
    "end": 72.597,
    "velocity": 72
  },
  {
    "pitch": 72,
    "start": 72.748,
    "end": 72.91,
    "velocity": 70
  },
  {
    "pitch": 68,
    "start": 72.748,
    "end": 73.061,
    "velocity": 46
  },
  {
    "pitch": 51,
    "start": 72.76,
    "end": 72.852,
    "velocity": 37
  },
  {
    "pitch": 68,
    "start": 73.061,
    "end": 73.212,
    "velocity": 76
  },
  {
    "pitch": 72,
    "start": 73.073,
    "end": 73.212,
    "velocity": 80
  },
  {
    "pitch": 74,
    "start": 73.177,
    "end": 73.27,
    "velocity": 65
  },
  {
    "pitch": 56,
    "start": 73.201,
    "end": 73.34,
    "velocity": 50
  },
  {
    "pitch": 70,
    "start": 73.212,
    "end": 73.386,
    "velocity": 67
  },
  {
    "pitch": 74,
    "start": 73.282,
    "end": 73.515,
    "velocity": 66
  },
  {
    "pitch": 55,
    "start": 73.515,
    "end": 73.666,
    "velocity": 66
  },
  {
    "pitch": 76,
    "start": 73.527,
    "end": 73.655,
    "velocity": 59
  },
  {
    "pitch": 67,
    "start": 73.527,
    "end": 73.666,
    "velocity": 57
  },
  {
    "pitch": 64,
    "start": 73.666,
    "end": 74.003,
    "velocity": 56
  },
  {
    "pitch": 72,
    "start": 73.678,
    "end": 73.852,
    "velocity": 80
  },
  {
    "pitch": 69,
    "start": 74.003,
    "end": 74.131,
    "velocity": 62
  },
  {
    "pitch": 64,
    "start": 74.003,
    "end": 74.154,
    "velocity": 72
  },
  {
    "pitch": 48,
    "start": 74.142,
    "end": 74.247,
    "velocity": 53
  },
  {
    "pitch": 67,
    "start": 74.154,
    "end": 74.317,
    "velocity": 82
  },
  {
    "pitch": 60,
    "start": 74.154,
    "end": 74.433,
    "velocity": 60
  },
  {
    "pitch": 43,
    "start": 74.433,
    "end": 74.781,
    "velocity": 76
  },
  {
    "pitch": 72,
    "start": 74.781,
    "end": 74.932,
    "velocity": 82
  },
  {
    "pitch": 44,
    "start": 74.781,
    "end": 74.978,
    "velocity": 64
  },
  {
    "pitch": 68,
    "start": 74.793,
    "end": 74.932,
    "velocity": 77
  },
  {
    "pitch": 72,
    "start": 74.932,
    "end": 75.071,
    "velocity": 83
  },
  {
    "pitch": 68,
    "start": 74.932,
    "end": 75.071,
    "velocity": 77
  },
  {
    "pitch": 72,
    "start": 75.245,
    "end": 75.385,
    "velocity": 63
  },
  {
    "pitch": 68,
    "start": 75.257,
    "end": 75.385,
    "velocity": 59
  },
  {
    "pitch": 72,
    "start": 75.537,
    "end": 75.688,
    "velocity": 83
  },
  {
    "pitch": 68,
    "start": 75.537,
    "end": 75.711,
    "velocity": 78
  },
  {
    "pitch": 74,
    "start": 75.711,
    "end": 75.839,
    "velocity": 67
  },
  {
    "pitch": 70,
    "start": 75.711,
    "end": 75.839,
    "velocity": 62
  },
  {
    "pitch": 56,
    "start": 75.711,
    "end": 75.85,
    "velocity": 38
  },
  {
    "pitch": 76,
    "start": 75.85,
    "end": 75.99,
    "velocity": 73
  },
  {
    "pitch": 67,
    "start": 75.85,
    "end": 76.036,
    "velocity": 75
  },
  {
    "pitch": 55,
    "start": 76.036,
    "end": 76.164,
    "velocity": 55
  },
  {
    "pitch": 48,
    "start": 76.524,
    "end": 76.651,
    "velocity": 49
  },
  {
    "pitch": 43,
    "start": 76.907,
    "end": 77.093,
    "velocity": 69
  },
  {
    "pitch": 44,
    "start": 77.244,
    "end": 77.489,
    "velocity": 57
  },
  {
    "pitch": 72,
    "start": 77.267,
    "end": 77.418,
    "velocity": 79
  },
  {
    "pitch": 68,
    "start": 77.267,
    "end": 77.418,
    "velocity": 77
  },
  {
    "pitch": 72,
    "start": 77.418,
    "end": 77.558,
    "velocity": 80
  },
  {
    "pitch": 68,
    "start": 77.418,
    "end": 77.558,
    "velocity": 77
  },
  {
    "pitch": 72,
    "start": 77.721,
    "end": 77.872,
    "velocity": 66
  },
  {
    "pitch": 68,
    "start": 77.721,
    "end": 77.872,
    "velocity": 60
  },
  {
    "pitch": 51,
    "start": 77.721,
    "end": 77.814,
    "velocity": 45
  },
  {
    "pitch": 72,
    "start": 78.034,
    "end": 78.174,
    "velocity": 77
  },
  {
    "pitch": 68,
    "start": 78.034,
    "end": 78.185,
    "velocity": 75
  },
  {
    "pitch": 74,
    "start": 78.185,
    "end": 78.348,
    "velocity": 70
  },
  {
    "pitch": 70,
    "start": 78.185,
    "end": 78.336,
    "velocity": 69
  },
  {
    "pitch": 56,
    "start": 78.185,
    "end": 78.313,
    "velocity": 42
  },
  {
    "pitch": 76,
    "start": 78.499,
    "end": 78.626,
    "velocity": 54
  },
  {
    "pitch": 67,
    "start": 78.499,
    "end": 78.603,
    "velocity": 49
  },
  {
    "pitch": 55,
    "start": 78.545,
    "end": 78.65,
    "velocity": 57
  },
  {
    "pitch": 72,
    "start": 78.65,
    "end": 78.812,
    "velocity": 73
  },
  {
    "pitch": 64,
    "start": 78.65,
    "end": 78.824,
    "velocity": 72
  },
  {
    "pitch": 69,
    "start": 78.975,
    "end": 79.091,
    "velocity": 57
  },
  {
    "pitch": 64,
    "start": 78.975,
    "end": 79.114,
    "velocity": 77
  },
  {
    "pitch": 48,
    "start": 79.079,
    "end": 79.219,
    "velocity": 55
  },
  {
    "pitch": 67,
    "start": 79.114,
    "end": 79.265,
    "velocity": 75
  },
  {
    "pitch": 60,
    "start": 79.126,
    "end": 79.253,
    "velocity": 56
  },
  {
    "pitch": 43,
    "start": 79.416,
    "end": 79.719,
    "velocity": 66
  },
  {
    "pitch": 66,
    "start": 79.719,
    "end": 79.882,
    "velocity": 75
  },
  {
    "pitch": 76,
    "start": 79.765,
    "end": 80.021,
    "velocity": 71
  },
  {
    "pitch": 66,
    "start": 79.882,
    "end": 80.032,
    "velocity": 73
  },
  {
    "pitch": 66,
    "start": 80.183,
    "end": 80.358,
    "velocity": 67
  },
  {
    "pitch": 76,
    "start": 80.241,
    "end": 80.346,
    "velocity": 64
  },
  {
    "pitch": 72,
    "start": 80.508,
    "end": 80.636,
    "velocity": 73
  },
  {
    "pitch": 66,
    "start": 80.508,
    "end": 80.822,
    "velocity": 77
  },
  {
    "pitch": 76,
    "start": 80.706,
    "end": 80.81,
    "velocity": 60
  },
  {
    "pitch": 71,
    "start": 80.973,
    "end": 81.135,
    "velocity": 68
  },
  {
    "pitch": 67,
    "start": 80.973,
    "end": 81.112,
    "velocity": 66
  },
  {
    "pitch": 79,
    "start": 80.985,
    "end": 81.101,
    "velocity": 52
  }
]