[
  {
    "pitch": 66,
    "start": 0.0,
    "end": 0.16199999999999998,
    "velocity": 68
  },
  {
    "pitch": 76,
    "start": 0.045999999999999985,
    "end": 0.302,
    "velocity": 71
  },
  {
    "pitch": 66,
    "start": 0.16199999999999998,
    "end": 0.302,
    "velocity": 71
  },
  {
    "pitch": 57,
    "start": 0.16199999999999998,
    "end": 0.26699999999999996,
    "velocity": 38
  },
  {
    "pitch": 76,
    "start": 0.464,
    "end": 0.603,
    "velocity": 69
  },
  {
    "pitch": 66,
    "start": 0.464,
    "end": 0.766,
    "velocity": 45
  },
  {
    "pitch": 72,
    "start": 0.766,
    "end": 0.8940000000000001,
    "velocity": 74
  },
  {
    "pitch": 66,
    "start": 0.766,
    "end": 1.068,
    "velocity": 83
  },
  {
    "pitch": 76,
    "start": 0.9630000000000001,
    "end": 1.056,
    "velocity": 62
  },
  {
    "pitch": 67,
    "start": 1.219,
    "end": 1.37,
    "velocity": 60
  },
  {
    "pitch": 79,
    "start": 1.23,
    "end": 1.37,
    "velocity": 44
  },
  {
    "pitch": 71,
    "start": 1.23,
    "end": 1.393,
    "velocity": 67
  },
  {
    "pitch": 55,
    "start": 1.8350000000000002,
    "end": 2.009,
    "velocity": 73
  },
  {
    "pitch": 67,
    "start": 1.8470000000000002,
    "end": 1.9749999999999999,
    "velocity": 60
  },
  {
    "pitch": 55,
    "start": 2.4509999999999996,
    "end": 2.602,
    "velocity": 59
  },
  {
    "pitch": 72,
    "start": 2.4739999999999998,
    "end": 2.6359999999999997,
    "velocity": 79
  },
  {
    "pitch": 64,
    "start": 2.4859999999999998,
    "end": 2.6479999999999997,
    "velocity": 75
  },
  {
    "pitch": 60,
    "start": 2.9499999999999997,
    "end": 3.101,
    "velocity": 52
  },
  {
    "pitch": 67,
    "start": 2.9619999999999997,
    "end": 3.101,
    "velocity": 71
  },
  {
    "pitch": 64,
    "start": 3.403,
    "end": 3.577,
    "velocity": 79
  },
  {
    "pitch": 55,
    "start": 3.403,
    "end": 3.577,
    "velocity": 80
  },
  {
    "pitch": 69,
    "start": 3.868,
    "end": 4.031000000000001,
    "velocity": 74
  },
  {
    "pitch": 60,
    "start": 3.868,
    "end": 4.17,
    "velocity": 75
  },
  {
    "pitch": 43,
    "start": 4.17,
    "end": 4.275,
    "velocity": 38
  },
  {
    "pitch": 71,
    "start": 4.182,
    "end": 4.321000000000001,
    "velocity": 68
  },
  {
    "pitch": 62,
    "start": 4.182,
    "end": 4.321000000000001,
    "velocity": 67
  },
  {
    "pitch": 70,
    "start": 4.495,
    "end": 4.658,
    "velocity": 78
  },
  {
    "pitch": 61,
    "start": 4.495,
    "end": 4.658,
    "velocity": 74
  },
  {
    "pitch": 69,
    "start": 4.658,
    "end": 4.809,
    "velocity": 79
  },
  {
    "pitch": 60,
    "start": 4.658,
    "end": 4.7860000000000005,
    "velocity": 74
  },
  {
    "pitch": 60,
    "start": 4.948,
    "end": 5.122,
    "velocity": 60
  },
  {
    "pitch": 52,
    "start": 4.948,
    "end": 5.0760000000000005,
    "velocity": 49
  },
  {
    "pitch": 67,
    "start": 4.96,
    "end": 5.157,
    "velocity": 77
  },
  {
    "pitch": 76,
    "start": 5.157,
    "end": 5.308,
    "velocity": 71
  },
  {
    "pitch": 67,
    "start": 5.157,
    "end": 5.3660000000000005,
    "velocity": 82
  },
  {
    "pitch": 71,
    "start": 5.3660000000000005,
    "end": 5.529,
    "velocity": 78
  },
  {
    "pitch": 64,
    "start": 5.3660000000000005,
    "end": 5.4590000000000005,
    "velocity": 46
  },
  {
    "pitch": 79,
    "start": 5.378,
    "end": 5.575,
    "velocity": 70
  },
  {
    "pitch": 81,
    "start": 5.575,
    "end": 5.704000000000001,
    "velocity": 64
  },
  {
    "pitch": 72,
    "start": 5.575,
    "end": 5.716,
    "velocity": 75
  },
  {
    "pitch": 77,
    "start": 5.878,
    "end": 6.018000000000001,
    "velocity": 67
  },
  {
    "pitch": 69,
    "start": 5.878,
    "end": 6.018000000000001,
    "velocity": 81
  },
  {
    "pitch": 62,
    "start": 5.878,
    "end": 6.018000000000001,
    "velocity": 49
  },
  {
    "pitch": 64,
    "start": 6.018000000000001,
    "end": 6.11,
    "velocity": 36
  },
  {
    "pitch": 79,
    "start": 6.029,
    "end": 6.180000000000001,
    "velocity": 71
  },
  {
    "pitch": 71,
    "start": 6.0760000000000005,
    "end": 6.168,
    "velocity": 69
  },
  {
    "pitch": 76,
    "start": 6.354,
    "end": 6.505,
    "velocity": 70
  },
  {
    "pitch": 69,
    "start": 6.354,
    "end": 6.482,
    "velocity": 63
  },
  {
    "pitch": 60,
    "start": 6.354,
    "end": 6.482,
    "velocity": 61
  },
  {
    "pitch": 57,
    "start": 6.354,
    "end": 6.447,
    "velocity": 42
  },
  {
    "pitch": 72,
    "start": 6.656000000000001,
    "end": 6.807,
    "velocity": 73
  },
  {
    "pitch": 64,
    "start": 6.656000000000001,
    "end": 6.819,
    "velocity": 79
  },
  {
    "pitch": 57,
    "start": 6.656000000000001,
    "end": 6.819,
    "velocity": 43
  },
  {
    "pitch": 59,
    "start": 6.819,
    "end": 6.9350000000000005,
    "velocity": 51
  },
  {
    "pitch": 74,
    "start": 6.83,
    "end": 6.958,
    "velocity": 69
  },
  {
    "pitch": 65,
    "start": 6.83,
    "end": 6.981,
    "velocity": 70
  },
  {
    "pitch": 71,
    "start": 6.981,
    "end": 7.12,
    "velocity": 76
  },
  {
    "pitch": 62,
    "start": 6.981,
    "end": 7.132000000000001,
    "velocity": 77
  },
  {
    "pitch": 64,
    "start": 7.434,
    "end": 7.596,
    "velocity": 75
  },
  {
    "pitch": 55,
    "start": 7.434,
    "end": 7.585,
    "velocity": 60
  },
  {
    "pitch": 72,
    "start": 7.446000000000001,
    "end": 7.596,
    "velocity": 69
  },
  {
    "pitch": 67,
    "start": 7.9,
    "end": 8.062,
    "velocity": 72
  },
  {
    "pitch": 52,
    "start": 7.9,
    "end": 8.027000000000001,
    "velocity": 49
  },
  {
    "pitch": 60,
    "start": 7.911,
    "end": 8.062,
    "velocity": 63
  },
  {
    "pitch": 64,
    "start": 8.376,
    "end": 8.538,
    "velocity": 79
  },
  {
    "pitch": 55,
    "start": 8.376,
    "end": 8.538,
    "velocity": 80
  },
  {
    "pitch": 60,
    "start": 8.817,
    "end": 8.979000000000001,
    "velocity": 76
  },
  {
    "pitch": 69,
    "start": 8.828,
    "end": 8.968,
    "velocity": 76
  },
  {
    "pitch": 71,
    "start": 9.142,
    "end": 9.281,
    "velocity": 69
  },
  {
    "pitch": 62,
    "start": 9.142,
    "end": 9.281,
    "velocity": 75
  },
  {
    "pitch": 43,
    "start": 9.142,
    "end": 9.235,
    "velocity": 40
  },
  {
    "pitch": 61,
    "start": 9.432,
    "end": 9.595,
    "velocity": 76
  },
  {
    "pitch": 70,
    "start": 9.444,
    "end": 9.608,
    "velocity": 84
  },
  {
    "pitch": 60,
    "start": 9.596,
    "end": 9.758000000000001,
    "velocity": 78
  },
  {
    "pitch": 69,
    "start": 9.608,
    "end": 9.898,
    "velocity": 77
  },
  {
    "pitch": 60,
    "start": 9.898,
    "end": 10.153,
    "velocity": 58
  },
  {
    "pitch": 52,
    "start": 9.898,
    "end": 10.037,
    "velocity": 52
  },
  {
    "pitch": 67,
    "start": 9.909,
    "end": 10.269,
    "velocity": 78
  },
  {
    "pitch": 76,
    "start": 10.13,
    "end": 10.327,
    "velocity": 71
  },
  {
    "pitch": 79,
    "start": 10.327,
    "end": 10.49,
    "velocity": 74
  },
  {
    "pitch": 71,
    "start": 10.327,
    "end": 10.548,
    "velocity": 77
  },
  {
    "pitch": 81,
    "start": 10.548,
    "end": 10.687,
    "velocity": 67
  },
  {
    "pitch": 72,
    "start": 10.583,
    "end": 10.838000000000001,
    "velocity": 70
  },
  {
    "pitch": 77,
    "start": 10.838000000000001,
    "end": 10.989,
    "velocity": 68
  },
  {
    "pitch": 69,
    "start": 10.838000000000001,
    "end": 11.001,
    "velocity": 81
  },
  {
    "pitch": 62,
    "start": 10.838000000000001,
    "end": 10.966000000000001,
    "velocity": 52
  },
  {
    "pitch": 64,
    "start": 10.966000000000001,
    "end": 11.082,
    "velocity": 42
  },
  {
    "pitch": 79,
    "start": 11.001,
    "end": 11.152000000000001,
    "velocity": 72
  },
  {
    "pitch": 71,
    "start": 11.012,
    "end": 11.163,
    "velocity": 73
  },
  {
    "pitch": 76,
    "start": 11.314,
    "end": 11.477,
    "velocity": 70
  },
  {
    "pitch": 69,
    "start": 11.314,
    "end": 11.454,
    "velocity": 61
  },
  {
    "pitch": 60,
    "start": 11.314,
    "end": 11.419,
    "velocity": 54
  },
  {
    "pitch": 64,
    "start": 11.617,
    "end": 11.768,
    "velocity": 74
  },
  {
    "pitch": 57,
    "start": 11.617,
    "end": 11.71,
    "velocity": 41
  },
  {
    "pitch": 72,
    "start": 11.629,
    "end": 11.768,
    "velocity": 75
  },
  {
    "pitch": 59,
    "start": 11.733,
    "end": 11.884,
    "velocity": 51
  },
  {
    "pitch": 74,
    "start": 11.780000000000001,
    "end": 11.919,
    "velocity": 71
  },
  {
    "pitch": 65,
    "start": 11.780000000000001,
    "end": 11.931000000000001,
    "velocity": 72
  },
  {
    "pitch": 62,
    "start": 11.931000000000001,
    "end": 12.082,
    "velocity": 78
  },
  {
    "pitch": 71,
    "start": 11.942,
    "end": 12.082,
    "velocity": 79
  },
  {
    "pitch": 48,
    "start": 12.395,
    "end": 12.685,
    "velocity": 71
  },
  {
    "pitch": 76,
    "start": 12.685,
    "end": 12.86,
    "velocity": 64
  },
  {
    "pitch": 79,
    "start": 12.697000000000001,
    "end": 12.871,
    "velocity": 80
  },
  {
    "pitch": 75,
    "start": 12.871,
    "end": 13.011000000000001,
    "velocity": 70
  },
  {
    "pitch": 55,
    "start": 12.894,
    "end": 13.034,
    "velocity": 42
  },
  {
    "pitch": 78,
    "start": 12.906,
    "end": 13.011000000000001,
    "velocity": 61
  },
  {
    "pitch": 74,
    "start": 13.011000000000001,
    "end": 13.161,
    "velocity": 65
  },
  {
    "pitch": 77,
    "start": 13.022,
    "end": 13.161,
    "velocity": 63
  },
  {
    "pitch": 75,
    "start": 13.161,
    "end": 13.324,
    "velocity": 82
  },
  {
    "pitch": 71,
    "start": 13.173,
    "end": 13.324,
    "velocity": 73
  },
  {
    "pitch": 60,
    "start": 13.312,
    "end": 13.487,
    "velocity": 81
  },
  {
    "pitch": 72,
    "start": 13.487,
    "end": 13.627,
    "velocity": 65
  },
  {
    "pitch": 76,
    "start": 13.521,
    "end": 13.616,
    "velocity": 67
  },
  {
    "pitch": 53,
    "start": 13.616,
    "end": 13.790000000000001,
    "velocity": 74
  },
  {
    "pitch": 68,
    "start": 13.790000000000001,
    "end": 13.929,
    "velocity": 76
  },
  {
    "pitch": 64,
    "start": 13.790000000000001,
    "end": 13.941,
    "velocity": 76
  },
  {
    "pitch": 69,
    "start": 13.941,
    "end": 14.08,
    "velocity": 79
  },
  {
    "pitch": 65,
    "start": 13.941,
    "end": 14.08,
    "velocity": 76
  },
  {
    "pitch": 60,
    "start": 14.034,
    "end": 14.15,
    "velocity": 58
  },
  {
    "pitch": 72,
    "start": 14.15,
    "end": 14.243,
    "velocity": 62
  },
  {
    "pitch": 67,
    "start": 14.15,
    "end": 14.266,
    "velocity": 77
  },
  {
    "pitch": 60,
    "start": 14.161,
    "end": 14.405000000000001,
    "velocity": 59
  },
  {
    "pitch": 69,
    "start": 14.405000000000001,
    "end": 14.579,
    "velocity": 75
  },
  {
    "pitch": 60,
    "start": 14.405000000000001,
    "end": 14.568,
    "velocity": 75
  },
  {
    "pitch": 72,
    "start": 14.568,
    "end": 14.73,
    "velocity": 66
  },
  {
    "pitch": 64,
    "start": 14.568,
    "end": 14.73,
    "velocity": 75
  },
  {
    "pitch": 53,
    "start": 14.579,
    "end": 14.742,
    "velocity": 64
  },
  {
    "pitch": 74,
    "start": 14.742,
    "end": 14.881,
    "velocity": 77
  },
  {
    "pitch": 65,
    "start": 14.742,
    "end": 14.881,
    "velocity": 68
  },
  {
    "pitch": 48,
    "start": 14.881,
    "end": 15.206,
    "velocity": 69
  },
  {
    "pitch": 79,
    "start": 15.206,
    "end": 15.345,
    "velocity": 83
  },
  {
    "pitch": 76,
    "start": 15.206,
    "end": 15.345,
    "velocity": 69
  },
  {
    "pitch": 78,
    "start": 15.345,
    "end": 15.485,
    "velocity": 62
  },
  {
    "pitch": 75,
    "start": 15.357000000000001,
    "end": 15.485,
    "velocity": 71
  },
  {
    "pitch": 52,
    "start": 15.357000000000001,
    "end": 15.554,
    "velocity": 46
  },
  {
    "pitch": 74,
    "start": 15.554,
    "end": 15.66,
    "velocity": 70
  },
  {
    "pitch": 77,
    "start": 15.556000000000001,
    "end": 15.66,
    "velocity": 66
  },
  {
    "pitch": 75,
    "start": 15.66,
    "end": 15.811,
    "velocity": 82
  },
  {
    "pitch": 71,
    "start": 15.66,
    "end": 15.811,
    "velocity": 76
  },
  {
    "pitch": 55,
    "start": 15.788,
    "end": 15.939,
    "velocity": 78
  },
  {
    "pitch": 60,
    "start": 15.904,
    "end": 16.02,
    "velocity": 69
  },
  {
    "pitch": 72,
    "start": 15.962,
    "end": 16.125,
    "velocity": 62
  },
  {
    "pitch": 76,
    "start": 16.02,
    "end": 16.125,
    "velocity": 63
  },
  {
    "pitch": 60,
    "start": 16.02,
    "end": 16.113,
    "velocity": 56
  },
  {
    "pitch": 84,
    "start": 16.287,
    "end": 16.415,
    "velocity": 75
  },
  {
    "pitch": 79,
    "start": 16.287,
    "end": 16.392,
    "velocity": 52
  },
  {
    "pitch": 77,
    "start": 16.287,
    "end": 16.392,
    "velocity": 48
  },
  {
    "pitch": 77,
    "start": 16.589,
    "end": 16.728,
    "velocity": 37
  },
  {
    "pitch": 84,
    "start": 16.624,
    "end": 16.740000000000002,
    "velocity": 87
  },
  {
    "pitch": 79,
    "start": 16.635,
    "end": 16.833000000000002,
    "velocity": 47
  },
  {
    "pitch": 77,
    "start": 16.728,
    "end": 16.868,
    "velocity": 51
  },
  {
    "pitch": 84,
    "start": 16.740000000000002,
    "end": 16.891000000000002,
    "velocity": 70
  },
  {
    "pitch": 55,
    "start": 17.042,
    "end": 17.193,
    "velocity": 77
  },
  {
    "pitch": 48,
    "start": 17.344,
    "end": 17.658,
    "velocity": 73
  },
  {
    "pitch": 79,
    "start": 17.658,
    "end": 17.821,
    "velocity": 84
  },
  {
    "pitch": 75,
    "start": 17.658,
    "end": 17.972,
    "velocity": 72
  },
  {
    "pitch": 55,
    "start": 17.821,
    "end": 17.949,
    "velocity": 46
  },
  {
    "pitch": 77,
    "start": 17.867,
    "end": 18.111,
    "velocity": 69
  },
  {
    "pitch": 75,
    "start": 18.042,
    "end": 18.274,
    "velocity": 82
  },
  {
    "pitch": 71,
    "start": 18.134,
    "end": 18.274,
    "velocity": 75
  },
  {
    "pitch": 60,
    "start": 18.274,
    "end": 18.459,
    "velocity": 81
  },
  {
    "pitch": 72,
    "start": 18.459,
    "end": 18.587,
    "velocity": 66
  },
  {
    "pitch": 76,
    "start": 18.494,
    "end": 18.587,
    "velocity": 64
  },
  {
    "pitch": 53,
    "start": 18.494,
    "end": 18.761,
    "velocity": 74
  },
  {
    "pitch": 68,
    "start": 18.761,
    "end": 18.912,
    "velocity": 74
  },
  {
    "pitch": 64,
    "start": 18.761,
    "end": 18.912,
    "velocity": 75
  },
  {
    "pitch": 69,
    "start": 18.912,
    "end": 19.052,
    "velocity": 75
  },
  {
    "pitch": 65,
    "start": 18.912,
    "end": 19.075,
    "velocity": 77
  },
  {
    "pitch": 72,
    "start": 19.075,
    "end": 19.203,
    "velocity": 66
  },
  {
    "pitch": 67,
    "start": 19.075,
    "end": 19.226,
    "velocity": 82
  },
  {
    "pitch": 60,
    "start": 19.075,
    "end": 19.4,
    "velocity": 64
  },
  {
    "pitch": 69,
    "start": 19.4,
    "end": 19.541,
    "velocity": 80
  },
  {
    "pitch": 60,
    "start": 19.4,
    "end": 19.529,
    "velocity": 69
  },
  {
    "pitch": 53,
    "start": 19.529,
    "end": 19.691,
    "velocity": 66
  },
  {
    "pitch": 72,
    "start": 19.541,
    "end": 19.657,
    "velocity": 67
  },
  {
    "pitch": 65,
    "start": 19.541,
    "end": 19.842,
    "velocity": 74
  },
  {
    "pitch": 74,
    "start": 19.726,
    "end": 19.854,
    "velocity": 73
  },
  {
    "pitch": 48,
    "start": 19.854,
    "end": 20.156,
    "velocity": 70
  },
  {
    "pitch": 75,
    "start": 20.156,
    "end": 20.307,
    "velocity": 71
  },
  {
    "pitch": 56,
    "start": 20.156,
    "end": 20.318,
    "velocity": 78
  },
  {
    "pitch": 74,
    "start": 20.609,
    "end": 20.76,
    "velocity": 86
  },
  {
    "pitch": 65,
    "start": 20.609,
    "end": 20.771,
    "velocity": 79
  },
  {
    "pitch": 64,
    "start": 21.073,
    "end": 21.247,
    "velocity": 77
  },
  {
    "pitch": 72,
    "start": 21.085,
    "end": 21.236,
    "velocity": 53
  },
  {
    "pitch": 60,
    "start": 21.143,
    "end": 21.236,
    "velocity": 61
  },
  {
    "pitch": 55,
    "start": 21.585,
    "end": 22.003,
    "velocity": 61
  },
  {
    "pitch": 48,
    "start": 22.003,
    "end": 22.491,
    "velocity": 92
  },
  {
    "pitch": 76,
    "start": 22.642,
    "end": 22.781,
    "velocity": 68
  },
  {
    "pitch": 79,
    "start": 22.653,
    "end": 22.932,
    "velocity": 84
  },
  {
    "pitch": 55,
    "start": 22.804,
    "end": 22.932,
    "velocity": 58
  },
  {
    "pitch": 75,
    "start": 22.839,
    "end": 22.944,
    "velocity": 62
  },
  {
    "pitch": 77,
    "start": 22.944,
    "end": 23.094,
    "velocity": 70
  },
  {
    "pitch": 75,
    "start": 22.990000000000002,
    "end": 23.257,
    "velocity": 82
  },
  {
    "pitch": 71,
    "start": 23.118,
    "end": 23.257,
    "velocity": 71
  },
  {
    "pitch": 60,
    "start": 23.245,
    "end": 23.408,
    "velocity": 80
  },
  {
    "pitch": 76,
    "start": 23.408,
    "end": 23.549,
    "velocity": 65
  },
  {
    "pitch": 72,
    "start": 23.408,
    "end": 23.572,
    "velocity": 69
  },
  {
    "pitch": 53,
    "start": 23.466,
    "end": 23.723,
    "velocity": 73
  },
  {
    "pitch": 68,
    "start": 23.723,
    "end": 23.862000000000002,
    "velocity": 75
  },
  {
    "pitch": 64,
    "start": 23.723,
    "end": 23.862000000000002,
    "velocity": 73
  },
  {
    "pitch": 69,
    "start": 23.862000000000002,
    "end": 24.013,
    "velocity": 81
  },
  {
    "pitch": 65,
    "start": 23.874,
    "end": 24.013,
    "velocity": 79
  },
  {
    "pitch": 67,
    "start": 24.013,
    "end": 24.175,
    "velocity": 84
  },
  {
    "pitch": 60,
    "start": 24.013,
    "end": 24.222,
    "velocity": 64
  },
  {
    "pitch": 72,
    "start": 24.025,
    "end": 24.222,
    "velocity": 65
  },
  {
    "pitch": 60,
    "start": 24.222,
    "end": 24.512,
    "velocity": 73
  },
  {
    "pitch": 69,
    "start": 24.338,
    "end": 24.501,
    "velocity": 79
  },
  {
    "pitch": 72,
    "start": 24.501,
    "end": 24.628,
    "velocity": 63
  },
  {
    "pitch": 64,
    "start": 24.501,
    "end": 24.64,
    "velocity": 73
  },
  {
    "pitch": 53,
    "start": 24.501,
    "end": 24.651,
    "velocity": 65
  },
  {
    "pitch": 74,
    "start": 24.651,
    "end": 24.791,
    "velocity": 78
  },
  {
    "pitch": 65,
    "start": 24.651,
    "end": 24.802,
    "velocity": 70
  },
  {
    "pitch": 48,
    "start": 24.802,
    "end": 25.127,
    "velocity": 67
  },
  {
    "pitch": 79,
    "start": 25.127,
    "end": 25.267,
    "velocity": 73
  },
  {
    "pitch": 76,
    "start": 25.127,
    "end": 25.255,
    "velocity": 64
  },
  {
    "pitch": 52,
    "start": 25.22,
    "end": 25.371,
    "velocity": 51
  },
  {
    "pitch": 75,
    "start": 25.267,
    "end": 25.418,
    "velocity": 72
  },
  {
    "pitch": 77,
    "start": 25.313,
    "end": 25.547,
    "velocity": 72
  },
  {
    "pitch": 75,
    "start": 25.429,
    "end": 25.721,
    "velocity": 82
  },
  {
    "pitch": 71,
    "start": 25.57,
    "end": 25.721,
    "velocity": 73
  },
  {
    "pitch": 55,
    "start": 25.686,
    "end": 25.883,
    "velocity": 75
  },
  {
    "pitch": 76,
    "start": 25.883,
    "end": 26.034,
    "velocity": 74
  },
  {
    "pitch": 72,
    "start": 25.883,
    "end": 26.023,
    "velocity": 62
  },
  {
    "pitch": 60,
    "start": 25.883,
    "end": 26.023,
    "velocity": 53
  },
  {
    "pitch": 84,
    "start": 26.197,
    "end": 26.359,
    "velocity": 82
  },
  {
    "pitch": 79,
    "start": 26.197,
    "end": 26.313,
    "velocity": 65
  },
  {
    "pitch": 77,
    "start": 26.197,
    "end": 26.348,
    "velocity": 56
  },
  {
    "pitch": 77,
    "start": 26.51,
    "end": 26.661,
    "velocity": 35
  },
  {
    "pitch": 84,
    "start": 26.557,
    "end": 26.719,
    "velocity": 81
  },
  {
    "pitch": 79,
    "start": 26.557,
    "end": 26.754,
    "velocity": 47
  },
  {
    "pitch": 77,
    "start": 26.661,
    "end": 26.812,
    "velocity": 49
  },
  {
    "pitch": 84,
    "start": 26.719,
    "end": 26.975,
    "velocity": 74
  },
  {
    "pitch": 55,
    "start": 26.975,
    "end": 27.126,
    "velocity": 83
  },
  {
    "pitch": 48,
    "start": 27.288,
    "end": 27.603,
    "velocity": 64
  },
  {
    "pitch": 79,
    "start": 27.603,
    "end": 27.766000000000002,
    "velocity": 82
  },
  {
    "pitch": 76,
    "start": 27.603,
    "end": 27.766000000000002,
    "velocity": 73
  },
  {
    "pitch": 78,
    "start": 27.766000000000002,
    "end": 27.905,
    "velocity": 67
  },
  {
    "pitch": 75,
    "start": 27.766000000000002,
    "end": 27.905,
    "velocity": 74
  },
  {
    "pitch": 55,
    "start": 27.766000000000002,
    "end": 27.916,
    "velocity": 50
  },
  {
    "pitch": 77,
    "start": 27.916,
    "end": 28.056,
    "velocity": 63
  },
  {
    "pitch": 74,
    "start": 27.916,
    "end": 28.207,
    "velocity": 79
  },
  {
    "pitch": 71,
    "start": 28.067,
    "end": 28.207,
    "velocity": 72
  },
  {
    "pitch": 60,
    "start": 28.195,
    "end": 28.358,
    "velocity": 80
  },
  {
    "pitch": 76,
    "start": 28.358,
    "end": 28.497,
    "velocity": 68
  },
  {
    "pitch": 72,
    "start": 28.369,
    "end": 28.52,
    "velocity": 62
  },
  {
    "pitch": 53,
    "start": 28.509,
    "end": 28.683,
    "velocity": 76
  },
  {
    "pitch": 68,
    "start": 28.683,
    "end": 28.834,
    "velocity": 71
  },
  {
    "pitch": 65,
    "start": 28.683,
    "end": 28.973,
    "velocity": 77
  },
  {
    "pitch": 69,
    "start": 28.834,
    "end": 28.985,
    "velocity": 80
  },
  {
    "pitch": 72,
    "start": 28.985,
    "end": 29.135,
    "velocity": 64
  },
  {
    "pitch": 67,
    "start": 28.985,
    "end": 29.159,
    "velocity": 84
  },
  {
    "pitch": 60,
    "start": 28.985,
    "end": 29.31,
    "velocity": 64
  },
  {
    "pitch": 69,
    "start": 29.31,
    "end": 29.461,
    "velocity": 72
  },
  {
    "pitch": 60,
    "start": 29.31,
    "end": 29.449,
    "velocity": 74
  },
  {
    "pitch": 53,
    "start": 29.449,
    "end": 29.613,
    "velocity": 67
  },
  {
    "pitch": 72,
    "start": 29.461,
    "end": 29.613,
    "velocity": 65
  },
  {
    "pitch": 64,
    "start": 29.461,
    "end": 29.613,
    "velocity": 75
  },
  {
    "pitch": 74,
    "start": 29.613,
    "end": 29.764,
    "velocity": 74
  },
  {
    "pitch": 65,
    "start": 29.613,
    "end": 29.764,
    "velocity": 72
  },
  {
    "pitch": 48,
    "start": 29.764,
    "end": 30.077,
    "velocity": 80
  },
  {
    "pitch": 56,
    "start": 30.077,
    "end": 30.251,
    "velocity": 80
  },
  {
    "pitch": 75,
    "start": 30.089,
    "end": 30.240000000000002,
    "velocity": 75
  },
  {
    "pitch": 74,
    "start": 30.553,
    "end": 30.704,
    "velocity": 76
  },
  {
    "pitch": 65,
    "start": 30.553,
    "end": 30.693,
    "velocity": 77
  },
  {
    "pitch": 64,
    "start": 31.018,
    "end": 31.169,
    "velocity": 78
  },
  {
    "pitch": 60,
    "start": 31.018,
    "end": 31.169,
    "velocity": 77
  },
  {
    "pitch": 72,
    "start": 31.029,
    "end": 31.157,
    "velocity": 49
  },
  {
    "pitch": 55,
    "start": 31.436,
    "end": 31.936000000000003,
    "velocity": 66
  },
  {
    "pitch": 48,
    "start": 31.936000000000003,
    "end": 32.122,
    "velocity": 71
  },
  {
    "pitch": 44,
    "start": 32.122,
    "end": 32.446999999999996,
    "velocity": 62
  },
  {
    "pitch": 72,
    "start": 32.238,
    "end": 32.4,
    "velocity": 84
  },
  {
    "pitch": 68,
    "start": 32.238,
    "end": 32.4,
    "velocity": 77
  },
  {
    "pitch": 72,
    "start": 32.4,
    "end": 32.550999999999995,
    "velocity": 81
  },
  {
    "pitch": 68,
    "start": 32.4,
    "end": 32.550999999999995,
    "velocity": 74
  },
  {
    "pitch": 72,
    "start": 32.714,
    "end": 33.026999999999994,
    "velocity": 54
  },
  {
    "pitch": 68,
    "start": 32.714,
    "end": 33.026999999999994,
    "velocity": 49
  },
  {
    "pitch": 51,
    "start": 32.714,
    "end": 32.818,
    "velocity": 36
  },
  {
    "pitch": 72,
    "start": 33.026999999999994,
    "end": 33.166999999999994,
    "velocity": 83
  },
  {
    "pitch": 68,
    "start": 33.026999999999994,
    "end": 33.178,
    "velocity": 77
  },
  {
    "pitch": 70,
    "start": 33.178,
    "end": 33.352,
    "velocity": 69
  },
  {
    "pitch": 74,
    "start": 33.224999999999994,
    "end": 33.480999999999995,
    "velocity": 71
  },
  {
    "pitch": 76,
    "start": 33.480999999999995,
    "end": 33.620999999999995,
    "velocity": 63
  },
  {
    "pitch": 67,
    "start": 33.480999999999995,
    "end": 33.608999999999995,
    "velocity": 60
  },
  {
    "pitch": 55,
    "start": 33.480999999999995,
    "end": 33.632,
    "velocity": 63
  },
  {
    "pitch": 72,
    "start": 33.632,
    "end": 33.818,
    "velocity": 81
  },
  {
    "pitch": 64,
    "start": 33.632,
    "end": 33.956999999999994,
    "velocity": 57
  },
  {
    "pitch": 69,
    "start": 33.956999999999994,
    "end": 34.084999999999994,
    "velocity": 60
  },
  {
    "pitch": 64,
    "start": 33.956999999999994,
    "end": 34.096999999999994,
    "velocity": 81
  },
  {
    "pitch": 48,
    "start": 34.084999999999994,
    "end": 34.19,
    "velocity": 46
  },
  {
    "pitch": 67,
    "start": 34.108,
    "end": 34.270999999999994,
    "velocity": 80
  },
  {
    "pitch": 60,
    "start": 34.108,
    "end": 34.41,
    "velocity": 57
  },
  {
    "pitch": 43,
    "start": 34.41,
    "end": 34.735,
    "velocity": 79
  },
  {
    "pitch": 44,
    "start": 34.735,
    "end": 34.897999999999996,
    "velocity": 72
  },
  {
    "pitch": 72,
    "start": 34.75899999999999,
    "end": 34.897999999999996,
    "velocity": 83
  },
  {
    "pitch": 68,
    "start": 34.75899999999999,
    "end": 34.897999999999996,
    "velocity": 77
  },
  {
    "pitch": 72,
    "start": 34.897999999999996,
    "end": 35.037,
    "velocity": 79
  },
  {
    "pitch": 68,
    "start": 34.897999999999996,
    "end": 35.037,
    "velocity": 76
  },
  {
    "pitch": 44,
    "start": 34.897999999999996,
    "end": 34.991,
    "velocity": 47
  },
  {
    "pitch": 51,
    "start": 35.211,
    "end": 35.339,
    "velocity": 48
  },
  {
    "pitch": 72,
    "start": 35.223,
    "end": 35.503,
    "velocity": 48
  },
  {
    "pitch": 68,
    "start": 35.223,
    "end": 35.503,
    "velocity": 49
  },
  {
    "pitch": 72,
    "start": 35.503,
    "end": 35.653999999999996,
    "velocity": 85
  },
  {
    "pitch": 68,
    "start": 35.503,
    "end": 35.665,
    "velocity": 82
  },
  {
    "pitch": 56,
    "start": 35.665,
    "end": 35.769999999999996,
    "velocity": 38
  },
  {
    "pitch": 74,
    "start": 35.689,
    "end": 35.805,
    "velocity": 62
  },
  {
    "pitch": 70,
    "start": 35.689,
    "end": 35.815999999999995,
    "velocity": 67
  },
  {
    "pitch": 76,
    "start": 35.815999999999995,
    "end": 35.955999999999996,
    "velocity": 73
  },
  {
    "pitch": 67,
    "start": 35.815999999999995,
    "end": 35.955999999999996,
    "velocity": 79
  },
  {
    "pitch": 55,
    "start": 35.921,
    "end": 36.129999999999995,
    "velocity": 53
  },
  {
    "pitch": 48,
    "start": 36.419999999999995,
    "end": 36.605999999999995,
    "velocity": 56
  },
  {
    "pitch": 43,
    "start": 36.849999999999994,
    "end": 37.278999999999996,
    "velocity": 74
  },
  {
    "pitch": 72,
    "start": 37.221,
    "end": 37.36,
    "velocity": 81
  },
  {
    "pitch": 68,
    "start": 37.221,
    "end": 37.372,
    "velocity": 81
  },
  {
    "pitch": 44,
    "start": 37.291,
    "end": 37.431,
    "velocity": 55
  },
  {
    "pitch": 72,
    "start": 37.36,
    "end": 37.513,
    "velocity": 78
  },
  {
    "pitch": 68,
    "start": 37.372,
    "end": 37.513,
    "velocity": 78
  },
  {
    "pitch": 68,
    "start": 37.675,
    "end": 37.837999999999994,
    "velocity": 65
  },
  {
    "pitch": 51,
    "start": 37.675,
    "end": 37.779999999999994,
    "velocity": 43
  },
  {
    "pitch": 72,
    "start": 37.687,
    "end": 37.837999999999994,
    "velocity": 71
  },
  {
    "pitch": 72,
    "start": 38.0,
    "end": 38.13999999999999,
    "velocity": 81
  },
  {
    "pitch": 68,
    "start": 38.0,
    "end": 38.13999999999999,
    "velocity": 81
  },
  {
    "pitch": 56,
    "start": 38.13999999999999,
    "end": 38.278999999999996,
    "velocity": 43
  },
  {
    "pitch": 70,
    "start": 38.150999999999996,
    "end": 38.291,
    "velocity": 63
  },
  {
    "pitch": 74,
    "start": 38.19799999999999,
    "end": 38.302,
    "velocity": 62
  },
  {
    "pitch": 55,
    "start": 38.452999999999996,
    "end": 38.592,
    "velocity": 64
  },
  {
    "pitch": 76,
    "start": 38.464999999999996,
    "end": 38.604,
    "velocity": 64
  },
  {
    "pitch": 67,
    "start": 38.464999999999996,
    "end": 38.604,
    "velocity": 55
  },
  {
    "pitch": 64,
    "start": 38.604,
    "end": 38.778,
    "velocity": 73
  },
  {
    "pitch": 72,
    "start": 38.616,
    "end": 38.778,
    "velocity": 76
  },
  {
    "pitch": 69,
    "start": 38.928999999999995,
    "end": 39.068,
    "velocity": 62
  },
  {
    "pitch": 64,
    "start": 38.928999999999995,
    "end": 39.092,
    "velocity": 74
  },
  {
    "pitch": 48,
    "start": 39.068,
    "end": 39.172999999999995,
    "velocity": 45
  },
  {
    "pitch": 67,
    "start": 39.092,
    "end": 39.242999999999995,
    "velocity": 72
  },
  {
    "pitch": 60,
    "start": 39.092,
    "end": 39.208,
    "velocity": 52
  },
  {
    "pitch": 43,
    "start": 39.394,
    "end": 39.522999999999996,
    "velocity": 59
  },
  {
    "pitch": 66,
    "start": 39.696999999999996,
    "end": 39.848,
    "velocity": 74
  },
  {
    "pitch": 76,
    "start": 39.742999999999995,
    "end": 39.858999999999995,
    "velocity": 76
  },
  {
    "pitch": 57,
    "start": 39.836,
    "end": 39.952,
    "velocity": 45
  },
  {
    "pitch": 66,
    "start": 39.848,
    "end": 39.986999999999995,
    "velocity": 72
  },
  {
    "pitch": 76,
    "start": 39.858999999999995,
    "end": 39.974999999999994,
    "velocity": 66
  },
  {
    "pitch": 66,
    "start": 40.148999999999994,
    "end": 40.312,
    "velocity": 66
  },
  {
    "pitch": 76,
    "start": 40.196,
    "end": 40.288999999999994,
    "velocity": 61
  },
  {
    "pitch": 72,
    "start": 40.462999999999994,
    "end": 40.602,
    "velocity": 78
  },
  {
    "pitch": 66,
    "start": 40.462999999999994,
    "end": 40.625,
    "velocity": 86
  },
  {
    "pitch": 38,
    "start": 40.462999999999994,
    "end": 40.625,
    "velocity": 38
  },
  {
    "pitch": 66,
    "start": 40.625,
    "end": 40.775999999999996,
    "velocity": 66
  },
  {
    "pitch": 57,
    "start": 40.625,
    "end": 40.717999999999996,
    "velocity": 38
  },
  {
    "pitch": 76,
    "start": 40.66,
    "end": 40.76499999999999,
    "velocity": 67
  },
  {
    "pitch": 79,
    "start": 40.939,
    "end": 41.067,
    "velocity": 48
  },
  {
    "pitch": 71,
    "start": 40.939,
    "end": 41.089999999999996,
    "velocity": 69
  },
  {
    "pitch": 67,
    "start": 40.939,
    "end": 41.077999999999996,
    "velocity": 69
  },
  {
    "pitch": 55,
    "start": 41.532,
    "end": 41.69499999999999,
    "velocity": 76
  },
  {
    "pitch": 67,
    "start": 41.544,
    "end": 41.672,
    "velocity": 57
  },
  {
    "pitch": 55,
    "start": 42.159,
    "end": 42.321999999999996,
    "velocity": 57
  },
  {
    "pitch": 64,
    "start": 42.171,
    "end": 42.345,
    "velocity": 75
  },
  {
    "pitch": 72,
    "start": 42.181999999999995,
    "end": 42.357,
    "velocity": 75
  },
  {
    "pitch": 67,
    "start": 42.657999999999994,
    "end": 42.809,
    "velocity": 71
  },
  {
    "pitch": 60,
    "start": 42.657999999999994,
    "end": 42.797999999999995,
    "velocity": 62
  },
  {
    "pitch": 52,
    "start": 42.657999999999994,
    "end": 42.775,
    "velocity": 48
  },
  {
    "pitch": 64,
    "start": 43.123,
    "end": 43.285,
    "velocity": 76
  },
  {
    "pitch": 55,
    "start": 43.123,
    "end": 43.285,
    "velocity": 76
  },
  {
    "pitch": 60,
    "start": 43.577,
    "end": 43.715999999999994,
    "velocity": 74
  },
  {
    "pitch": 69,
    "start": 43.589,
    "end": 43.855999999999995,
    "velocity": 70
  },
  {
    "pitch": 62,
    "start": 43.855999999999995,
    "end": 44.017999999999994,
    "velocity": 78
  },
  {
    "pitch": 71,
    "start": 43.901999999999994,
    "end": 44.017999999999994,
    "velocity": 69
  },
  {
    "pitch": 61,
    "start": 44.181,
    "end": 44.331999999999994,
    "velocity": 77
  },
  {
    "pitch": 70,
    "start": 44.192,
    "end": 44.342999999999996,
    "velocity": 79
  },
  {
    "pitch": 60,
    "start": 44.331999999999994,
    "end": 44.506,
    "velocity": 79
  },
  {
    "pitch": 69,
    "start": 44.342999999999996,
    "end": 44.494,
    "velocity": 79
  },
  {
    "pitch": 60,
    "start": 44.644999999999996,
    "end": 44.818999999999996,
    "velocity": 61
  },
  {
    "pitch": 67,
    "start": 44.657,
    "end": 44.854,
    "velocity": 76
  },
  {
    "pitch": 52,
    "start": 44.657,
    "end": 44.854,
    "velocity": 58
  },
  {
    "pitch": 76,
    "start": 44.854,
    "end": 45.016999999999996,
    "velocity": 75
  },
  {
    "pitch": 67,
    "start": 44.854,
    "end": 45.074999999999996,
    "velocity": 82
  },
  {
    "pitch": 79,
    "start": 45.074999999999996,
    "end": 45.226,
    "velocity": 69
  },
  {
    "pitch": 71,
    "start": 45.074999999999996,
    "end": 45.272,
    "velocity": 85
  },
  {
    "pitch": 72,
    "start": 45.272,
    "end": 45.424,
    "velocity": 74
  },
  {
    "pitch": 81,
    "start": 45.284,
    "end": 45.413,
    "velocity": 68
  },
  {
    "pitch": 77,
    "start": 45.586999999999996,
    "end": 45.726,
    "velocity": 70
  },
  {
    "pitch": 69,
    "start": 45.586999999999996,
    "end": 45.738,
    "velocity": 82
  },
  {
    "pitch": 62,
    "start": 45.586999999999996,
    "end": 45.726,
    "velocity": 44
  },
  {
    "pitch": 64,
    "start": 45.726,
    "end": 45.818999999999996,
    "velocity": 40
  },
  {
    "pitch": 71,
    "start": 45.738,
    "end": 45.888999999999996,
    "velocity": 75
  },
  {
    "pitch": 79,
    "start": 45.772999999999996,
    "end": 45.876999999999995,
    "velocity": 68
  },
  {
    "pitch": 60,
    "start": 46.050999999999995,
    "end": 46.156,
    "velocity": 50
  },
  {
    "pitch": 76,
    "start": 46.062999999999995,
    "end": 46.202,
    "velocity": 68
  },
  {
    "pitch": 69,
    "start": 46.062999999999995,
    "end": 46.178999999999995,
    "velocity": 58
  },
  {
    "pitch": 64,
    "start": 46.352999999999994,
    "end": 46.516,
    "velocity": 77
  },
  {
    "pitch": 72,
    "start": 46.364999999999995,
    "end": 46.516,
    "velocity": 74
  },
  {
    "pitch": 59,
    "start": 46.516,
    "end": 46.654999999999994,
    "velocity": 51
  },
  {
    "pitch": 74,
    "start": 46.526999999999994,
    "end": 46.654999999999994,
    "velocity": 65
  },
  {
    "pitch": 65,
    "start": 46.526999999999994,
    "end": 46.666,
    "velocity": 67
  },
  {
    "pitch": 43,
    "start": 46.666,
    "end": 46.782999999999994,
    "velocity": 46
  },
  {
    "pitch": 71,
    "start": 46.678,
    "end": 46.82899999999999,
    "velocity": 76
  },
  {
    "pitch": 62,
    "start": 46.678,
    "end": 46.82899999999999,
    "velocity": 77
  },
  {
    "pitch": 72,
    "start": 47.142999999999994,
    "end": 47.305,
    "velocity": 72
  },
  {
    "pitch": 64,
    "start": 47.142999999999994,
    "end": 47.305,
    "velocity": 75
  },
  {
    "pitch": 55,
    "start": 47.142999999999994,
    "end": 47.282,
    "velocity": 62
  },
  {
    "pitch": 67,
    "start": 47.584999999999994,
    "end": 47.736,
    "velocity": 78
  },
  {
    "pitch": 60,
    "start": 47.584999999999994,
    "end": 47.724,
    "velocity": 62
  },
  {
    "pitch": 52,
    "start": 47.584999999999994,
    "end": 47.689,
    "velocity": 36
  },
  {
    "pitch": 55,
    "start": 48.049,
    "end": 48.211999999999996,
    "velocity": 74
  },
  {
    "pitch": 64,
    "start": 48.061,
    "end": 48.211999999999996,
    "velocity": 79
  },
  {
    "pitch": 69,
    "start": 48.525,
    "end": 48.675999999999995,
    "velocity": 75
  },
  {
    "pitch": 60,
    "start": 48.525,
    "end": 48.827,
    "velocity": 70
  },
  {
    "pitch": 43,
    "start": 48.827,
    "end": 48.943,
    "velocity": 44
  },
  {
    "pitch": 71,
    "start": 48.839,
    "end": 49.001,
    "velocity": 74
  },
  {
    "pitch": 62,
    "start": 48.839,
    "end": 49.001,
    "velocity": 79
  },
  {
    "pitch": 42,
    "start": 49.163999999999994,
    "end": 49.267999999999994,
    "velocity": 43
  },
  {
    "pitch": 70,
    "start": 49.175999999999995,
    "end": 49.315,
    "velocity": 84
  },
  {
    "pitch": 60,
    "start": 49.175999999999995,
    "end": 49.455,
    "velocity": 73
  },
  {
    "pitch": 69,
    "start": 49.315,
    "end": 49.605999999999995,
    "velocity": 81
  },
  {
    "pitch": 52,
    "start": 49.605999999999995,
    "end": 49.733999999999995,
    "velocity": 50
  },
  {
    "pitch": 60,
    "start": 49.617999999999995,
    "end": 49.815,
    "velocity": 55
  },
  {
    "pitch": 67,
    "start": 49.629999999999995,
    "end": 49.827,
    "velocity": 75
  },
  {
    "pitch": 76,
    "start": 49.827,
    "end": 49.977999999999994,
    "velocity": 72
  },
  {
    "pitch": 67,
    "start": 49.827,
    "end": 50.023999999999994,
    "velocity": 76
  },
  {
    "pitch": 79,
    "start": 50.023999999999994,
    "end": 50.187,
    "velocity": 69
  },
  {
    "pitch": 71,
    "start": 50.023999999999994,
    "end": 50.187,
    "velocity": 79
  },
  {
    "pitch": 64,
    "start": 50.023999999999994,
    "end": 50.245,
    "velocity": 44
  },
  {
    "pitch": 72,
    "start": 50.245,
    "end": 50.395999999999994,
    "velocity": 74
  },
  {
    "pitch": 81,
    "start": 50.291,
    "end": 50.395999999999994,
    "velocity": 71
  },
  {
    "pitch": 69,
    "start": 50.547,
    "end": 50.721,
    "velocity": 80
  },
  {
    "pitch": 77,
    "start": 50.558,
    "end": 50.708999999999996,
    "velocity": 70
  },
  {
    "pitch": 62,
    "start": 50.558,
    "end": 50.675,
    "velocity": 51
  },
  {
    "pitch": 64,
    "start": 50.675,
    "end": 50.802,
    "velocity": 36
  },
  {
    "pitch": 79,
    "start": 50.721,
    "end": 50.86,
    "velocity": 72
  },
  {
    "pitch": 71,
    "start": 50.721,
    "end": 50.86,
    "velocity": 77
  },
  {
    "pitch": 60,
    "start": 51.010999999999996,
    "end": 51.138999999999996,
    "velocity": 53
  },
  {
    "pitch": 76,
    "start": 51.022999999999996,
    "end": 51.184999999999995,
    "velocity": 70
  },
  {
    "pitch": 69,
    "start": 51.022999999999996,
    "end": 51.138999999999996,
    "velocity": 56
  },
  {
    "pitch": 57,
    "start": 51.022999999999996,
    "end": 51.138999999999996,
    "velocity": 45
  },
  {
    "pitch": 72,
    "start": 51.32599999999999,
    "end": 51.477,
    "velocity": 68
  },
  {
    "pitch": 64,
    "start": 51.32599999999999,
    "end": 51.488,
    "velocity": 76
  },
  {
    "pitch": 74,
    "start": 51.488,
    "end": 51.605,
    "velocity": 67
  },
  {
    "pitch": 65,
    "start": 51.488,
    "end": 51.616,
    "velocity": 70
  },
  {
    "pitch": 59,
    "start": 51.488,
    "end": 51.628,
    "velocity": 53
  },
  {
    "pitch": 71,
    "start": 51.628,
    "end": 51.778999999999996,
    "velocity": 76
  },
  {
    "pitch": 62,
    "start": 51.628,
    "end": 51.778999999999996,
    "velocity": 74
  },
  {
    "pitch": 48,
    "start": 52.080999999999996,
    "end": 52.254999999999995,
    "velocity": 77
  },
  {
    "pitch": 76,
    "start": 52.092,
    "end": 52.242999999999995,
    "velocity": 74
  },
  {
    "pitch": 72,
    "start": 52.092,
    "end": 52.254999999999995,
    "velocity": 83
  },
  {
    "pitch": 67,
    "start": 52.092,
    "end": 52.254999999999995,
    "velocity": 35
  },
  {
    "pitch": 72,
    "start": 52.254999999999995,
    "end": 52.394,
    "velocity": 68
  },
  {
    "pitch": 69,
    "start": 52.254999999999995,
    "end": 52.406,
    "velocity": 74
  },
  {
    "pitch": 67,
    "start": 52.568,
    "end": 52.708,
    "velocity": 70
  },
  {
    "pitch": 64,
    "start": 52.568,
    "end": 52.708,
    "velocity": 75
  },
  {
    "pitch": 55,
    "start": 52.696,
    "end": 52.882,
    "velocity": 52
  },
  {
    "pitch": 68,
    "start": 53.032999999999994,
    "end": 53.19499999999999,
    "velocity": 76
  },
  {
    "pitch": 64,
    "start": 53.032999999999994,
    "end": 53.19499999999999,
    "velocity": 75
  },
  {
    "pitch": 60,
    "start": 53.032999999999994,
    "end": 53.16,
    "velocity": 54
  },
  {
    "pitch": 69,
    "start": 53.324,
    "end": 53.486999999999995,
    "velocity": 79
  },
  {
    "pitch": 65,
    "start": 53.324,
    "end": 53.462999999999994,
    "velocity": 73
  },
  {
    "pitch": 53,
    "start": 53.324,
    "end": 53.626,
    "velocity": 79
  },
  {
    "pitch": 72,
    "start": 53.486999999999995,
    "end": 53.8,
    "velocity": 56
  },
  {
    "pitch": 77,
    "start": 53.498,
    "end": 53.638,
    "velocity": 69
  },
  {
    "pitch": 53,
    "start": 53.626,
    "end": 53.82299999999999,
    "velocity": 69
  },
  {
    "pitch": 77,
    "start": 53.8,
    "end": 53.95099999999999,
    "velocity": 73
  },
  {
    "pitch": 72,
    "start": 53.8,
    "end": 53.962999999999994,
    "velocity": 85
  },
  {
    "pitch": 60,
    "start": 53.95099999999999,
    "end": 54.102,
    "velocity": 80
  },
  {
    "pitch": 69,
    "start": 53.974,
    "end": 54.102,
    "velocity": 63
  },
  {
    "pitch": 65,
    "start": 53.974,
    "end": 54.125,
    "velocity": 67
  },
  {
    "pitch": 60,
    "start": 54.102,
    "end": 54.26499999999999,
    "velocity": 78
  },
  {
    "pitch": 53,
    "start": 54.253,
    "end": 54.577999999999996,
    "velocity": 69
  },
  {
    "pitch": 50,
    "start": 54.577999999999996,
    "end": 54.693999999999996,
    "velocity": 53
  },
  {
    "pitch": 71,
    "start": 54.589999999999996,
    "end": 54.751999999999995,
    "velocity": 72
  },
  {
    "pitch": 67,
    "start": 54.589999999999996,
    "end": 54.799,
    "velocity": 69
  },
  {
    "pitch": 81,
    "start": 54.799,
    "end": 54.995999999999995,
    "velocity": 69
  },
  {
    "pitch": 77,
    "start": 54.799,
    "end": 54.995999999999995,
    "velocity": 73
  },
  {
    "pitch": 81,
    "start": 54.995999999999995,
    "end": 55.263,
    "velocity": 65
  },
  {
    "pitch": 77,
    "start": 54.995999999999995,
    "end": 55.263,
    "velocity": 62
  },
  {
    "pitch": 53,
    "start": 55.053999999999995,
    "end": 55.263,
    "velocity": 65
  },
  {
    "pitch": 81,
    "start": 55.263,
    "end": 55.346,
    "velocity": 68
  },
  {
    "pitch": 77,
    "start": 55.263,
    "end": 55.391999999999996,
    "velocity": 61
  },
  {
    "pitch": 79,
    "start": 55.391999999999996,
    "end": 55.531,
    "velocity": 72
  },
  {
    "pitch": 76,
    "start": 55.391999999999996,
    "end": 55.531,
    "velocity": 65
  },
  {
    "pitch": 59,
    "start": 55.507999999999996,
    "end": 55.635999999999996,
    "velocity": 64
  },
  {
    "pitch": 77,
    "start": 55.601,
    "end": 55.763999999999996,
    "velocity": 71
  },
  {
    "pitch": 74,
    "start": 55.601,
    "end": 55.809999999999995,
    "velocity": 82
  },
  {
    "pitch": 55,
    "start": 55.809999999999995,
    "end": 55.925999999999995,
    "velocity": 51
  },
  {
    "pitch": 76,
    "start": 55.821999999999996,
    "end": 55.961,
    "velocity": 73
  },
  {
    "pitch": 72,
    "start": 55.821999999999996,
    "end": 56.111999999999995,
    "velocity": 85
  },
  {
    "pitch": 69,
    "start": 55.973,
    "end": 56.111999999999995,
    "velocity": 75
  },
  {
    "pitch": 55,
    "start": 56.089,
    "end": 56.285999999999994,
    "velocity": 79
  },
  {
    "pitch": 69,
    "start": 56.285999999999994,
    "end": 56.425,
    "velocity": 73
  },
  {
    "pitch": 65,
    "start": 56.285999999999994,
    "end": 56.437,
    "velocity": 77
  },
  {
    "pitch": 67,
    "start": 56.437,
    "end": 56.599,
    "velocity": 72
  },
  {
    "pitch": 60,
    "start": 56.437,
    "end": 56.565,
    "velocity": 47
  },
  {
    "pitch": 64,
    "start": 56.483,
    "end": 56.587999999999994,
    "velocity": 64
  },
  {
    "pitch": 60,
    "start": 56.565,
    "end": 56.75,
    "velocity": 81
  },
  {
    "pitch": 55,
    "start": 56.75,
    "end": 57.052,
    "velocity": 74
  },
  {
    "pitch": 76,
    "start": 57.052,
    "end": 57.226,
    "velocity": 76
  },
  {
    "pitch": 72,
    "start": 57.052,
    "end": 57.238,
    "velocity": 82
  },
  {
    "pitch": 48,
    "start": 57.052,
    "end": 57.226,
    "velocity": 74
  },
  {
    "pitch": 69,
    "start": 57.226,
    "end": 57.379,
    "velocity": 75
  },
  {
    "pitch": 72,
    "start": 57.238,
    "end": 57.355,
    "velocity": 72
  },
  {
    "pitch": 67,
    "start": 57.517999999999994,
    "end": 57.68,
    "velocity": 70
  },
  {
    "pitch": 64,
    "start": 57.517999999999994,
    "end": 57.68,
    "velocity": 74
  },
  {
    "pitch": 55,
    "start": 57.517999999999994,
    "end": 57.982,
    "velocity": 66
  },
  {
    "pitch": 68,
    "start": 57.982,
    "end": 58.144999999999996,
    "velocity": 74
  },
  {
    "pitch": 64,
    "start": 57.982,
    "end": 58.156,
    "velocity": 72
  },
  {
    "pitch": 60,
    "start": 57.982,
    "end": 58.122,
    "velocity": 58
  },
  {
    "pitch": 69,
    "start": 58.306999999999995,
    "end": 58.446999999999996,
    "velocity": 79
  },
  {
    "pitch": 65,
    "start": 58.306999999999995,
    "end": 58.434999999999995,
    "velocity": 66
  },
  {
    "pitch": 53,
    "start": 58.306999999999995,
    "end": 58.586,
    "velocity": 83
  },
  {
    "pitch": 77,
    "start": 58.458,
    "end": 58.608999999999995,
    "velocity": 70
  },
  {
    "pitch": 72,
    "start": 58.458,
    "end": 58.782999999999994,
    "velocity": 58
  },
  {
    "pitch": 53,
    "start": 58.586,
    "end": 58.818,
    "velocity": 70
  },
  {
    "pitch": 77,
    "start": 58.782999999999994,
    "end": 58.910999999999994,
    "velocity": 74
  },
  {
    "pitch": 72,
    "start": 58.782999999999994,
    "end": 58.922999999999995,
    "velocity": 79
  },
  {
    "pitch": 69,
    "start": 58.922999999999995,
    "end": 59.096999999999994,
    "velocity": 72
  },
  {
    "pitch": 65,
    "start": 58.934,
    "end": 59.108,
    "velocity": 75
  },
  {
    "pitch": 60,
    "start": 58.934,
    "end": 59.248,
    "velocity": 79
  },
  {
    "pitch": 53,
    "start": 59.224999999999994,
    "end": 59.538999999999994,
    "velocity": 69
  },
  {
    "pitch": 71,
    "start": 59.538999999999994,
    "end": 59.69,
    "velocity": 78
  },
  {
    "pitch": 67,
    "start": 59.538999999999994,
    "end": 59.666999999999994,
    "velocity": 65
  },
  {
    "pitch": 55,
    "start": 59.538999999999994,
    "end": 59.69,
    "velocity": 72
  },
  {
    "pitch": 77,
    "start": 59.69,
    "end": 59.840999999999994,
    "velocity": 70
  },
  {
    "pitch": 74,
    "start": 59.69,
    "end": 59.840999999999994,
    "velocity": 81
  },
  {
    "pitch": 55,
    "start": 59.992,
    "end": 60.154999999999994,
    "velocity": 70
  },
  {
    "pitch": 77,
    "start": 60.004,
    "end": 60.154999999999994,
    "velocity": 75
  },
  {
    "pitch": 74,
    "start": 60.004,
    "end": 60.154999999999994,
    "velocity": 75
  },
  {
    "pitch": 77,
    "start": 60.154999999999994,
    "end": 60.306,
    "velocity": 60
  },
  {
    "pitch": 74,
    "start": 60.154999999999994,
    "end": 60.306,
    "velocity": 63
  },
  {
    "pitch": 55,
    "start": 60.154999999999994,
    "end": 60.364,
    "velocity": 65
  },
  {
    "pitch": 76,
    "start": 60.364,
    "end": 60.525999999999996,
    "velocity": 58
  },
  {
    "pitch": 72,
    "start": 60.364,
    "end": 60.538,
    "velocity": 72
  },
  {
    "pitch": 57,
    "start": 60.364,
    "end": 60.583999999999996,
    "velocity": 71
  },
  {
    "pitch": 74,
    "start": 60.583999999999996,
    "end": 60.735,
    "velocity": 74
  },
  {
    "pitch": 71,
    "start": 60.583999999999996,
    "end": 60.724,
    "velocity": 58
  },
  {
    "pitch": 59,
    "start": 60.583999999999996,
    "end": 60.782,
    "velocity": 75
  },
  {
    "pitch": 72,
    "start": 60.782,
    "end": 60.943999999999996,
    "velocity": 70
  },
  {
    "pitch": 67,
    "start": 60.782,
    "end": 60.955999999999996,
    "velocity": 86
  },
  {
    "pitch": 60,
    "start": 60.782,
    "end": 60.943999999999996,
    "velocity": 72
  },
  {
    "pitch": 64,
    "start": 60.943999999999996,
    "end": 61.245999999999995,
    "velocity": 55
  },
  {
    "pitch": 55,
    "start": 61.071999999999996,
    "end": 61.245999999999995,
    "velocity": 77
  },
  {
    "pitch": 64,
    "start": 61.245999999999995,
    "end": 61.41,
    "velocity": 80
  },
  {
    "pitch": 48,
    "start": 61.397999999999996,
    "end": 61.583999999999996,
    "velocity": 69
  },
  {
    "pitch": 60,
    "start": 61.41,
    "end": 61.549,
    "velocity": 60
  },
  {
    "pitch": 76,
    "start": 62.025,
    "end": 62.163999999999994,
    "velocity": 72
  },
  {
    "pitch": 48,
    "start": 62.025,
    "end": 62.187999999999995,
    "velocity": 73
  },
  {
    "pitch": 72,
    "start": 62.037,
    "end": 62.187999999999995,
    "velocity": 85
  },
  {
    "pitch": 69,
    "start": 62.175999999999995,
    "end": 62.349999999999994,
    "velocity": 74
  },
  {
    "pitch": 72,
    "start": 62.187999999999995,
    "end": 62.489999999999995,
    "velocity": 68
  },
  {
    "pitch": 64,
    "start": 62.489999999999995,
    "end": 62.63999999999999,
    "velocity": 72
  },
  {
    "pitch": 67,
    "start": 62.501,
    "end": 62.629,
    "velocity": 67
  },
  {
    "pitch": 55,
    "start": 62.501,
    "end": 62.95399999999999,
    "velocity": 61
  },
  {
    "pitch": 60,
    "start": 62.95399999999999,
    "end": 63.092999999999996,
    "velocity": 57
  },
  {
    "pitch": 68,
    "start": 62.965999999999994,
    "end": 63.128,
    "velocity": 75
  },
  {
    "pitch": 64,
    "start": 62.965999999999994,
    "end": 63.257,
    "velocity": 70
  },
  {
    "pitch": 69,
    "start": 63.257,
    "end": 63.395999999999994,
    "velocity": 80
  },
  {
    "pitch": 65,
    "start": 63.257,
    "end": 63.385,
    "velocity": 64
  },
  {
    "pitch": 53,
    "start": 63.257,
    "end": 63.523999999999994,
    "velocity": 74
  },
  {
    "pitch": 77,
    "start": 63.407999999999994,
    "end": 63.547,
    "velocity": 76
  },
  {
    "pitch": 72,
    "start": 63.407999999999994,
    "end": 63.571,
    "velocity": 82
  },
  {
    "pitch": 53,
    "start": 63.523999999999994,
    "end": 63.73299999999999,
    "velocity": 78
  },
  {
    "pitch": 77,
    "start": 63.73299999999999,
    "end": 63.86099999999999,
    "velocity": 75
  },
  {
    "pitch": 72,
    "start": 63.73299999999999,
    "end": 63.872,
    "velocity": 84
  },
  {
    "pitch": 60,
    "start": 63.872,
    "end": 64.012,
    "velocity": 86
  },
  {
    "pitch": 69,
    "start": 63.884,
    "end": 64.023,
    "velocity": 64
  },
  {
    "pitch": 65,
    "start": 63.884,
    "end": 64.035,
    "velocity": 71
  },
  {
    "pitch": 60,
    "start": 64.012,
    "end": 64.198,
    "velocity": 81
  },
  {
    "pitch": 53,
    "start": 64.198,
    "end": 64.499,
    "velocity": 69
  },
  {
    "pitch": 71,
    "start": 64.499,
    "end": 64.67399999999999,
    "velocity": 77
  },
  {
    "pitch": 67,
    "start": 64.499,
    "end": 64.66199999999999,
    "velocity": 73
  },
  {
    "pitch": 50,
    "start": 64.499,
    "end": 64.708,
    "velocity": 36
  },
  {
    "pitch": 81,
    "start": 64.708,
    "end": 64.952,
    "velocity": 70
  },
  {
    "pitch": 77,
    "start": 64.72,
    "end": 65.184,
    "velocity": 68
  },
  {
    "pitch": 53,
    "start": 64.917,
    "end": 65.091,
    "velocity": 68
  },
  {
    "pitch": 81,
    "start": 64.952,
    "end": 65.184,
    "velocity": 61
  },
  {
    "pitch": 55,
    "start": 65.13799999999999,
    "end": 65.22,
    "velocity": 40
  },
  {
    "pitch": 81,
    "start": 65.184,
    "end": 65.279,
    "velocity": 62
  },
  {
    "pitch": 77,
    "start": 65.184,
    "end": 65.337,
    "velocity": 68
  },
  {
    "pitch": 79,
    "start": 65.337,
    "end": 65.476,
    "velocity": 71
  },
  {
    "pitch": 76,
    "start": 65.337,
    "end": 65.464,
    "velocity": 62
  },
  {
    "pitch": 59,
    "start": 65.429,
    "end": 65.569,
    "velocity": 72
  },
  {
    "pitch": 77,
    "start": 65.54599999999999,
    "end": 65.696,
    "velocity": 67
  },
  {
    "pitch": 74,
    "start": 65.54599999999999,
    "end": 65.743,
    "velocity": 81
  },
  {
    "pitch": 76,
    "start": 65.743,
    "end": 65.88199999999999,
    "velocity": 69
  },
  {
    "pitch": 55,
    "start": 65.743,
    "end": 65.859,
    "velocity": 59
  },
  {
    "pitch": 72,
    "start": 65.755,
    "end": 66.068,
    "velocity": 85
  },
  {
    "pitch": 69,
    "start": 65.905,
    "end": 66.219,
    "velocity": 52
  },
  {
    "pitch": 55,
    "start": 66.045,
    "end": 66.219,
    "velocity": 80
  },
  {
    "pitch": 69,
    "start": 66.219,
    "end": 66.35799999999999,
    "velocity": 75
  },
  {
    "pitch": 65,
    "start": 66.219,
    "end": 66.36999999999999,
    "velocity": 73
  },
  {
    "pitch": 67,
    "start": 66.36999999999999,
    "end": 66.544,
    "velocity": 72
  },
  {
    "pitch": 64,
    "start": 66.36999999999999,
    "end": 66.544,
    "velocity": 70
  },
  {
    "pitch": 60,
    "start": 66.36999999999999,
    "end": 66.672,
    "velocity": 79
  },
  {
    "pitch": 55,
    "start": 66.672,
    "end": 66.846,
    "velocity": 72
  },
  {
    "pitch": 76,
    "start": 67.008,
    "end": 67.136,
    "velocity": 64
  },
  {
    "pitch": 72,
    "start": 67.008,
    "end": 67.148,
    "velocity": 85
  },
  {
    "pitch": 48,
    "start": 67.008,
    "end": 67.17099999999999,
    "velocity": 69
  },
  {
    "pitch": 72,
    "start": 67.148,
    "end": 67.277,
    "velocity": 72
  },
  {
    "pitch": 69,
    "start": 67.148,
    "end": 67.288,
    "velocity": 74
  },
  {
    "pitch": 67,
    "start": 67.451,
    "end": 67.59,
    "velocity": 69
  },
  {
    "pitch": 64,
    "start": 67.451,
    "end": 67.60199999999999,
    "velocity": 74
  },
  {
    "pitch": 55,
    "start": 67.451,
    "end": 67.764,
    "velocity": 53
  },
  {
    "pitch": 68,
    "start": 67.91499999999999,
    "end": 68.078,
    "velocity": 72
  },
  {
    "pitch": 64,
    "start": 67.91499999999999,
    "end": 68.089,
    "velocity": 76
  },
  {
    "pitch": 60,
    "start": 67.91499999999999,
    "end": 68.04299999999999,
    "velocity": 56
  },
  {
    "pitch": 69,
    "start": 68.217,
    "end": 68.38,
    "velocity": 78
  },
  {
    "pitch": 65,
    "start": 68.217,
    "end": 68.39099999999999,
    "velocity": 71
  },
  {
    "pitch": 53,
    "start": 68.217,
    "end": 68.38,
    "velocity": 71
  },
  {
    "pitch": 77,
    "start": 68.38,
    "end": 68.53099999999999,
    "velocity": 74
  },
  {
    "pitch": 72,
    "start": 68.38,
    "end": 68.693,
    "velocity": 54
  },
  {
    "pitch": 53,
    "start": 68.38,
    "end": 68.716,
    "velocity": 71
  },
  {
    "pitch": 77,
    "start": 68.693,
    "end": 68.844,
    "velocity": 72
  },
  {
    "pitch": 72,
    "start": 68.693,
    "end": 68.856,
    "velocity": 85
  },
  {
    "pitch": 65,
    "start": 68.856,
    "end": 69.018,
    "velocity": 69
  },
  {
    "pitch": 60,
    "start": 68.856,
    "end": 68.98299999999999,
    "velocity": 83
  },
  {
    "pitch": 69,
    "start": 68.86699999999999,
    "end": 69.00699999999999,
    "velocity": 69
  },
  {
    "pitch": 60,
    "start": 68.98299999999999,
    "end": 69.169,
    "velocity": 78
  },
  {
    "pitch": 53,
    "start": 69.158,
    "end": 69.31,
    "velocity": 67
  },
  {
    "pitch": 55,
    "start": 69.461,
    "end": 69.612,
    "velocity": 67
  },
  {
    "pitch": 71,
    "start": 69.472,
    "end": 69.612,
    "velocity": 79
  },
  {
    "pitch": 67,
    "start": 69.472,
    "end": 69.63499999999999,
    "velocity": 68
  },
  {
    "pitch": 77,
    "start": 69.63499999999999,
    "end": 69.937,
    "velocity": 49
  },
  {
    "pitch": 74,
    "start": 69.63499999999999,
    "end": 69.937,
    "velocity": 53
  },
  {
    "pitch": 55,
    "start": 69.925,
    "end": 70.088,
    "velocity": 62
  },
  {
    "pitch": 77,
    "start": 69.937,
    "end": 70.146,
    "velocity": 80
  },
  {
    "pitch": 74,
    "start": 69.937,
    "end": 70.146,
    "velocity": 76
  },
  {
    "pitch": 55,
    "start": 70.088,
    "end": 70.22699999999999,
    "velocity": 57
  },
  {
    "pitch": 77,
    "start": 70.146,
    "end": 70.25,
    "velocity": 69
  },
  {
    "pitch": 74,
    "start": 70.146,
    "end": 70.30799999999999,
    "velocity": 68
  },
  {
    "pitch": 76,
    "start": 70.30799999999999,
    "end": 70.448,
    "velocity": 57
  },
  {
    "pitch": 57,
    "start": 70.30799999999999,
    "end": 70.448,
    "velocity": 72
  },
  {
    "pitch": 72,
    "start": 70.32,
    "end": 70.506,
    "velocity": 69
  },
  {
    "pitch": 59,
    "start": 70.506,
    "end": 70.657,
    "velocity": 71
  },
  {
    "pitch": 74,
    "start": 70.517,
    "end": 70.66799999999999,
    "velocity": 79
  },
  {
    "pitch": 71,
    "start": 70.517,
    "end": 70.715,
    "velocity": 60
  },
  {
    "pitch": 67,
    "start": 70.715,
    "end": 70.889,
    "velocity": 85
  },
  {
    "pitch": 72,
    "start": 70.726,
    "end": 70.877,
    "velocity": 68
  },
  {
    "pitch": 60,
    "start": 70.726,
    "end": 70.877,
    "velocity": 66
  },
  {
    "pitch": 64,
    "start": 70.877,
    "end": 71.01599999999999,
    "velocity": 75
  },
  {
    "pitch": 55,
    "start": 70.993,
    "end": 71.179,
    "velocity": 76
  },
  {
    "pitch": 64,
    "start": 71.179,
    "end": 71.32,
    "velocity": 82
  },
  {
    "pitch": 60,
    "start": 71.32,
    "end": 71.482,
    "velocity": 60
  },
  {
    "pitch": 48,
    "start": 71.354,
    "end": 71.517,
    "velocity": 69
  },
  {
    "pitch": 44,
    "start": 71.935,
    "end": 72.167,
    "velocity": 59
  },
  {
    "pitch": 72,
    "start": 71.946,
    "end": 72.109,
    "velocity": 80
  },
  {
    "pitch": 68,
    "start": 71.946,
    "end": 72.121,
    "velocity": 76
  },
  {
    "pitch": 72,
    "start": 72.109,
    "end": 72.24799999999999,
    "velocity": 81
  },
  {
    "pitch": 68,
    "start": 72.121,
    "end": 72.25999999999999,
    "velocity": 72
  },
  {
    "pitch": 72,
    "start": 72.411,
    "end": 72.573,
    "velocity": 70
  },
  {
    "pitch": 68,
    "start": 72.411,
    "end": 72.724,
    "velocity": 46
  },
  {
    "pitch": 51,
    "start": 72.423,
    "end": 72.515,
    "velocity": 37
  },
  {
    "pitch": 68,
    "start": 72.724,
    "end": 72.875,
    "velocity": 76
  },
  {
    "pitch": 72,
    "start": 72.73599999999999,
    "end": 72.875,
    "velocity": 80
  },
  {
    "pitch": 74,
    "start": 72.84,
    "end": 72.93299999999999,
    "velocity": 65
  },
  {
    "pitch": 56,
    "start": 72.86399999999999,
    "end": 73.003,
    "velocity": 50
  },
  {
    "pitch": 70,
    "start": 72.875,
    "end": 73.04899999999999,
    "velocity": 67
  },
  {
    "pitch": 74,
    "start": 72.945,
    "end": 73.178,
    "velocity": 66
  },
  {
    "pitch": 55,
    "start": 73.178,
    "end": 73.329,
    "velocity": 66
  },
  {
    "pitch": 76,
    "start": 73.19,
    "end": 73.318,
    "velocity": 59
  },
  {
    "pitch": 67,
    "start": 73.19,
    "end": 73.329,
    "velocity": 57
  },
  {
    "pitch": 64,
    "start": 73.329,
    "end": 73.666,
    "velocity": 56
  },
  {
    "pitch": 72,
    "start": 73.341,
    "end": 73.515,
    "velocity": 80
  },
  {
    "pitch": 69,
    "start": 73.666,
    "end": 73.794,
    "velocity": 62
  },
  {
    "pitch": 64,
    "start": 73.666,
    "end": 73.817,
    "velocity": 72
  },
  {
    "pitch": 48,
    "start": 73.80499999999999,
    "end": 73.91,
    "velocity": 53
  },
  {
    "pitch": 67,
    "start": 73.817,
    "end": 73.97999999999999,
    "velocity": 82
  },
  {
    "pitch": 60,
    "start": 73.817,
    "end": 74.096,
    "velocity": 60
  },
  {
    "pitch": 43,
    "start": 74.096,
    "end": 74.444,
    "velocity": 76
  },
  {
    "pitch": 72,
    "start": 74.444,
    "end": 74.595,
    "velocity": 82
  },
  {
    "pitch": 44,
    "start": 74.444,
    "end": 74.64099999999999,
    "velocity": 64
  },
  {
    "pitch": 68,
    "start": 74.456,
    "end": 74.595,
    "velocity": 77
  },
  {
    "pitch": 72,
    "start": 74.595,
    "end": 74.734,
    "velocity": 83
  },
  {
    "pitch": 68,
    "start": 74.595,
    "end": 74.734,
    "velocity": 77
  },
  {
    "pitch": 72,
    "start": 74.908,
    "end": 75.048,
    "velocity": 63
  },
  {
    "pitch": 68,
    "start": 74.92,
    "end": 75.048,
    "velocity": 59
  },
  {
    "pitch": 72,
    "start": 75.2,
    "end": 75.351,
    "velocity": 83
  },
  {
    "pitch": 68,
    "start": 75.2,
    "end": 75.374,
    "velocity": 78
  },
  {
    "pitch": 74,
    "start": 75.374,
    "end": 75.502,
    "velocity": 67
  },
  {
    "pitch": 70,
    "start": 75.374,
    "end": 75.502,
    "velocity": 62
  },
  {
    "pitch": 56,
    "start": 75.374,
    "end": 75.51299999999999,
    "velocity": 38
  },
  {
    "pitch": 76,
    "start": 75.51299999999999,
    "end": 75.65299999999999,
    "velocity": 73
  },
  {
    "pitch": 67,
    "start": 75.51299999999999,
    "end": 75.699,
    "velocity": 75
  },
  {
    "pitch": 55,
    "start": 75.699,
    "end": 75.827,
    "velocity": 55
  },
  {
    "pitch": 48,
    "start": 76.187,
    "end": 76.314,
    "velocity": 49
  },
  {
    "pitch": 43,
    "start": 76.57,
    "end": 76.756,
    "velocity": 69
  },
  {
    "pitch": 44,
    "start": 76.907,
    "end": 77.152,
    "velocity": 57
  },
  {
    "pitch": 72,
    "start": 76.92999999999999,
    "end": 77.081,
    "velocity": 79
  },
  {
    "pitch": 68,
    "start": 76.92999999999999,
    "end": 77.081,
    "velocity": 77
  },
  {
    "pitch": 72,
    "start": 77.081,
    "end": 77.221,
    "velocity": 80
  },
  {
    "pitch": 68,
    "start": 77.081,
    "end": 77.221,
    "velocity": 77
  },
  {
    "pitch": 72,
    "start": 77.384,
    "end": 77.535,
    "velocity": 66
  },
  {
    "pitch": 68,
    "start": 77.384,
    "end": 77.535,
    "velocity": 60
  },
  {
    "pitch": 51,
    "start": 77.384,
    "end": 77.47699999999999,
    "velocity": 45
  },
  {
    "pitch": 72,
    "start": 77.697,
    "end": 77.837,
    "velocity": 77
  },
  {
    "pitch": 68,
    "start": 77.697,
    "end": 77.848,
    "velocity": 75
  },
  {
    "pitch": 74,
    "start": 77.848,
    "end": 78.011,
    "velocity": 70
  },
  {
    "pitch": 70,
    "start": 77.848,
    "end": 77.999,
    "velocity": 69
  },
  {
    "pitch": 56,
    "start": 77.848,
    "end": 77.976,
    "velocity": 42
  },
  {
    "pitch": 76,
    "start": 78.16199999999999,
    "end": 78.289,
    "velocity": 54
  },
  {
    "pitch": 67,
    "start": 78.16199999999999,
    "end": 78.26599999999999,
    "velocity": 49
  },
  {
    "pitch": 55,
    "start": 78.208,
    "end": 78.313,
    "velocity": 57
  },
  {
    "pitch": 72,
    "start": 78.313,
    "end": 78.475,
    "velocity": 73
  },
  {
    "pitch": 64,
    "start": 78.313,
    "end": 78.487,
    "velocity": 72
  },
  {
    "pitch": 69,
    "start": 78.63799999999999,
    "end": 78.75399999999999,
    "velocity": 57
  },
  {
    "pitch": 64,
    "start": 78.63799999999999,
    "end": 78.777,
    "velocity": 77
  },
  {
    "pitch": 48,
    "start": 78.74199999999999,
    "end": 78.88199999999999,
    "velocity": 55
  },
  {
    "pitch": 67,
    "start": 78.777,
    "end": 78.928,
    "velocity": 75
  },
  {
    "pitch": 60,
    "start": 78.789,
    "end": 78.916,
    "velocity": 56
  },
  {
    "pitch": 43,
    "start": 79.079,
    "end": 79.38199999999999,
    "velocity": 66
  },
  {
    "pitch": 66,
    "start": 79.38199999999999,
    "end": 79.545,
    "velocity": 75
  },
  {
    "pitch": 76,
    "start": 79.428,
    "end": 79.684,
    "velocity": 71
  },
  {
    "pitch": 66,
    "start": 79.545,
    "end": 79.695,
    "velocity": 73
  },
  {
    "pitch": 66,
    "start": 79.846,
    "end": 80.021,
    "velocity": 67
  },
  {
    "pitch": 76,
    "start": 79.904,
    "end": 80.009,
    "velocity": 64
  },
  {
    "pitch": 72,
    "start": 80.17099999999999,
    "end": 80.29899999999999,
    "velocity": 73
  },
  {
    "pitch": 66,
    "start": 80.17099999999999,
    "end": 80.485,
    "velocity": 77
  },
  {
    "pitch": 76,
    "start": 80.369,
    "end": 80.473,
    "velocity": 60
  },
  {
    "pitch": 71,
    "start": 80.636,
    "end": 80.798,
    "velocity": 68
  },
  {
    "pitch": 67,
    "start": 80.636,
    "end": 80.77499999999999,
    "velocity": 66
  },
  {
    "pitch": 79,
    "start": 80.648,
    "end": 80.764,
    "velocity": 52
  }
]