[
  {
    "pitch": 44,
    "start": 0.0,
    "end": 0.3719999999999999,
    "velocity": 77
  },
  {
    "pitch": 47,
    "start": 0.2549999999999999,
    "end": 0.7430000000000003,
    "velocity": 95
  },
  {
    "pitch": 49,
    "start": 0.7430000000000003,
    "end": 1.093,
    "velocity": 93
  },
  {
    "pitch": 69,
    "start": 1.0,
    "end": 1.093,
    "velocity": 21
  },
  {
    "pitch": 49,
    "start": 1.093,
    "end": 1.255,
    "velocity": 81
  },
  {
    "pitch": 51,
    "start": 1.2439999999999998,
    "end": 1.5339999999999998,
    "velocity": 64
  },
  {
    "pitch": 50,
    "start": 1.4530000000000003,
    "end": 1.7890000000000006,
    "velocity": 79
  },
  {
    "pitch": 48,
    "start": 1.6850000000000005,
    "end": 2.0680000000000005,
    "velocity": 87
  },
  {
    "pitch": 46,
    "start": 2.0330000000000004,
    "end": 2.207,
    "velocity": 71
  },
  {
    "pitch": 47,
    "start": 2.207,
    "end": 2.4050000000000002,
    "velocity": 55
  },
  {
    "pitch": 44,
    "start": 2.3120000000000003,
    "end": 2.474,
    "velocity": 34
  },
  {
    "pitch": 56,
    "start": 2.463,
    "end": 2.5440000000000005,
    "velocity": 18
  },
  {
    "pitch": 43,
    "start": 2.474,
    "end": 2.5440000000000005,
    "velocity": 23
  },
  {
    "pitch": 45,
    "start": 2.5440000000000005,
    "end": 2.6720000000000006,
    "velocity": 21
  },
  {
    "pitch": 57,
    "start": 2.6720000000000006,
    "end": 2.8689999999999998,
    "velocity": 22
  },
  {
    "pitch": 45,
    "start": 2.6720000000000006,
    "end": 2.8340000000000005,
    "velocity": 77
  },
  {
    "pitch": 64,
    "start": 2.8230000000000004,
    "end": 2.952,
    "velocity": 25
  },
  {
    "pitch": 45,
    "start": 2.8340000000000005,
    "end": 2.998,
    "velocity": 95
  },
  {
    "pitch": 56,
    "start": 2.8689999999999998,
    "end": 3.056,
    "velocity": 33
  },
  {
    "pitch": 45,
    "start": 2.998,
    "end": 3.2879999999999994,
    "velocity": 89
  }
]