[
  {
    "pitch": 41,
    "start": 0.395,
    "end": 0.488,
    "velocity": 22
  },
  {
    "pitch": 96,
    "start": 0.639,
    "end": 0.755,
    "velocity": 22
  },
  {
    "pitch": 51,
    "start": 0.639,
    "end": 0.731,
    "velocity": 21
  },
  {
    "pitch": 47,
    "start": 0.639,
    "end": 0.731,
    "velocity": 20
  },
  {
    "pitch": 41,
    "start": 0.639,
    "end": 0.731,
    "velocity": 26
  },
  {
    "pitch": 64,
    "start": 0.639,
    "end": 0.708,
    "velocity": 23
  },
  {
    "pitch": 100,
    "start": 0.65,
    "end": 0.731,
    "velocity": 19
  },
  {
    "pitch": 97,
    "start": 0.65,
    "end": 0.731,
    "velocity": 21
  },
  {
    "pitch": 70,
    "start": 0.65,
    "end": 0.743,
    "velocity": 27
  },
  {
    "pitch": 66,
    "start": 0.65,
    "end": 0.731,
    "velocity": 18
  },
  {
    "pitch": 68,
    "start": 0.662,
    "end": 0.743,
    "velocity": 30
  },
  {
    "pitch": 41,
    "start": 0.731,
    "end": 0.94,
    "velocity": 31
  },
  {
    "pitch": 69,
    "start": 0.743,
    "end": 0.813,
    "velocity": 24
  },
  {
    "pitch": 50,
    "start": 0.789,
    "end": 0.859,
    "velocity": 20
  },
  {
    "pitch": 53,
    "start": 1.01,
    "end": 1.231,
    "velocity": 23
  },
  {
    "pitch": 51,
    "start": 1.231,
    "end": 1.335,
    "velocity": 20
  },
  {
    "pitch": 44,
    "start": 1.277,
    "end": 1.463,
    "velocity": 19
  },
  {
    "pitch": 58,
    "start": 1.3,
    "end": 1.405,
    "velocity": 23
  },
  {
    "pitch": 55,
    "start": 1.3,
    "end": 1.44,
    "velocity": 23
  },
  {
    "pitch": 41,
    "start": 1.37,
    "end": 1.544,
    "velocity": 25
  },
  {
    "pitch": 41,
    "start": 1.741,
    "end": 1.939,
    "velocity": 21
  },
  {
    "pitch": 53,
    "start": 1.939,
    "end": 2.196,
    "velocity": 26
  },
  {
    "pitch": 34,
    "start": 1.998,
    "end": 2.23,
    "velocity": 19
  },
  {
    "pitch": 44,
    "start": 2.149,
    "end": 2.277,
    "velocity": 22
  },
  {
    "pitch": 38,
    "start": 2.277,
    "end": 2.381,
    "velocity": 25
  },
  {
    "pitch": 31,
    "start": 2.277,
    "end": 2.544,
    "velocity": 20
  },
  {
    "pitch": 48,
    "start": 2.288,
    "end": 2.381,
    "velocity": 20
  },
  {
    "pitch": 93,
    "start": 2.3,
    "end": 2.393,
    "velocity": 22
  },
  {
    "pitch": 69,
    "start": 2.3,
    "end": 2.439,
    "velocity": 25
  },
  {
    "pitch": 65,
    "start": 2.3,
    "end": 2.393,
    "velocity": 24
  },
  {
    "pitch": 51,
    "start": 2.323,
    "end": 2.393,
    "velocity": 20
  },
  {
    "pitch": 35,
    "start": 2.335,
    "end": 2.439,
    "velocity": 17
  },
  {
    "pitch": 67,
    "start": 2.37,
    "end": 2.439,
    "velocity": 19
  },
  {
    "pitch": 55,
    "start": 2.381,
    "end": 2.532,
    "velocity": 17
  },
  {
    "pitch": 48,
    "start": 2.381,
    "end": 2.567,
    "velocity": 32
  },
  {
    "pitch": 43,
    "start": 2.381,
    "end": 2.625,
    "velocity": 24
  },
  {
    "pitch": 38,
    "start": 2.381,
    "end": 2.532,
    "velocity": 25
  },
  {
    "pitch": 52,
    "start": 2.393,
    "end": 2.532,
    "velocity": 22
  },
  {
    "pitch": 50,
    "start": 2.393,
    "end": 2.532,
    "velocity": 25
  },
  {
    "pitch": 53,
    "start": 2.532,
    "end": 2.73,
    "velocity": 23
  },
  {
    "pitch": 34,
    "start": 2.579,
    "end": 2.834,
    "velocity": 25
  },
  {
    "pitch": 93,
    "start": 2.834,
    "end": 2.915,
    "velocity": 20
  },
  {
    "pitch": 74,
    "start": 2.846,
    "end": 2.997,
    "velocity": 21
  },
  {
    "pitch": 34,
    "start": 2.997,
    "end": 3.136,
    "velocity": 18
  },
  {
    "pitch": 53,
    "start": 3.043,
    "end": 3.148,
    "velocity": 26
  },
  {
    "pitch": 34,
    "start": 3.148,
    "end": 3.287,
    "velocity": 25
  },
  {
    "pitch": 53,
    "start": 3.159,
    "end": 3.345,
    "velocity": 31
  },
  {
    "pitch": 39,
    "start": 3.299,
    "end": 3.415,
    "velocity": 17
  },
  {
    "pitch": 47,
    "start": 3.31,
    "end": 3.415,
    "velocity": 17
  },
  {
    "pitch": 35,
    "start": 3.368,
    "end": 3.473,
    "velocity": 19
  },
  {
    "pitch": 92,
    "start": 3.38,
    "end": 3.449,
    "velocity": 20
  },
  {
    "pitch": 33,
    "start": 3.38,
    "end": 3.449,
    "velocity": 19
  },
  {
    "pitch": 46,
    "start": 3.415,
    "end": 3.612,
    "velocity": 22
  },
  {
    "pitch": 39,
    "start": 3.415,
    "end": 3.658,
    "velocity": 19
  },
  {
    "pitch": 53,
    "start": 3.519,
    "end": 3.612,
    "velocity": 23
  },
  {
    "pitch": 41,
    "start": 3.554,
    "end": 3.635,
    "velocity": 20
  },
  {
    "pitch": 93,
    "start": 3.902,
    "end": 3.972,
    "velocity": 21
  },
  {
    "pitch": 100,
    "start": 3.937,
    "end": 4.008,
    "velocity": 23
  },
  {
    "pitch": 70,
    "start": 3.96,
    "end": 4.02,
    "velocity": 20
  },
  {
    "pitch": 44,
    "start": 5.018,
    "end": 5.39,
    "velocity": 77
  },
  {
    "pitch": 47,
    "start": 5.273,
    "end": 5.761,
    "velocity": 95
  },
  {
    "pitch": 49,
    "start": 5.761,
    "end": 6.111,
    "velocity": 93
  },
  {
    "pitch": 69,
    "start": 6.018,
    "end": 6.111,
    "velocity": 21
  },
  {
    "pitch": 49,
    "start": 6.111,
    "end": 6.273,
    "velocity": 81
  },
  {
    "pitch": 51,
    "start": 6.262,
    "end": 6.552,
    "velocity": 64
  },
  {
    "pitch": 50,
    "start": 6.471,
    "end": 6.807,
    "velocity": 79
  },
  {
    "pitch": 48,
    "start": 6.703,
    "end": 7.086,
    "velocity": 87
  },
  {
    "pitch": 46,
    "start": 7.051,
    "end": 7.225,
    "velocity": 71
  },
  {
    "pitch": 47,
    "start": 7.225,
    "end": 7.423,
    "velocity": 55
  },
  {
    "pitch": 44,
    "start": 7.33,
    "end": 7.492,
    "velocity": 34
  },
  {
    "pitch": 56,
    "start": 7.481,
    "end": 7.562,
    "velocity": 18
  },
  {
    "pitch": 43,
    "start": 7.492,
    "end": 7.562,
    "velocity": 23
  },
  {
    "pitch": 45,
    "start": 7.562,
    "end": 7.69,
    "velocity": 21
  },
  {
    "pitch": 57,
    "start": 7.69,
    "end": 7.887,
    "velocity": 22
  },
  {
    "pitch": 45,
    "start": 7.69,
    "end": 7.852,
    "velocity": 77
  },
  {
    "pitch": 64,
    "start": 7.841,
    "end": 7.97,
    "velocity": 25
  },
  {
    "pitch": 45,
    "start": 7.852,
    "end": 8.016,
    "velocity": 95
  },
  {
    "pitch": 56,
    "start": 7.887,
    "end": 8.074,
    "velocity": 33
  },
  {
    "pitch": 45,
    "start": 8.016,
    "end": 8.306,
    "velocity": 89
  }
]