[
  {
    "pitch": 51,
    "start": 0.859,
    "end": 1.695,
    "velocity": 80
  },
  {
    "pitch": 51,
    "start": 1.904,
    "end": 2.59,
    "velocity": 85
  },
  {
    "pitch": 53,
    "start": 2.59,
    "end": 2.753,
    "velocity": 74
  },
  {
    "pitch": 65,
    "start": 2.602,
    "end": 2.823,
    "velocity": 43
  },
  {
    "pitch": 51,
    "start": 2.823,
    "end": 3.113,
    "velocity": 75
  },
  {
    "pitch": 70,
    "start": 2.834,
    "end": 2.962,
    "velocity": 54
  },
  {
    "pitch": 63,
    "start": 2.846,
    "end": 3.113,
    "velocity": 53
  },
  {
    "pitch": 50,
    "start": 3.113,
    "end": 4.089,
    "velocity": 91
  },
  {
    "pitch": 50,
    "start": 4.089,
    "end": 4.345,
    "velocity": 38
  },
  {
    "pitch": 51,
    "start": 4.345,
    "end": 4.635,
    "velocity": 72
  },
  {
    "pitch": 50,
    "start": 5.39,
    "end": 5.889,
    "velocity": 88
  },
  {
    "pitch": 54,
    "start": 5.889,
    "end": 6.366,
    "velocity": 116
  },
  {
    "pitch": 73,
    "start": 6.355,
    "end": 6.447,
    "velocity": 47
  },
  {
    "pitch": 54,
    "start": 6.366,
    "end": 6.703,
    "velocity": 87
  },
  {
    "pitch": 52,
    "start": 6.703,
    "end": 7.237,
    "velocity": 77
  },
  {
    "pitch": 51,
    "start": 7.237,
    "end": 7.887,
    "velocity": 112
  },
  {
    "pitch": 41,
    "start": 9.131,
    "end": 9.305,
    "velocity": 37
  },
  {
    "pitch": 42,
    "start": 9.305,
    "end": 9.525,
    "velocity": 39
  },
  {
    "pitch": 54,
    "start": 11.814,
    "end": 12.047,
    "velocity": 80
  },
  {
    "pitch": 52,
    "start": 12.047,
    "end": 12.372,
    "velocity": 55
  },
  {
    "pitch": 55,
    "start": 12.372,
    "end": 12.86,
    "velocity": 100
  },
  {
    "pitch": 67,
    "start": 12.546,
    "end": 12.674,
    "velocity": 38
  },
  {
    "pitch": 55,
    "start": 12.86,
    "end": 13.162,
    "velocity": 90
  },
  {
    "pitch": 67,
    "start": 12.86,
    "end": 12.964,
    "velocity": 39
  },
  {
    "pitch": 53,
    "start": 13.266,
    "end": 13.824,
    "velocity": 98
  },
  {
    "pitch": 51,
    "start": 13.824,
    "end": 14.359,
    "velocity": 98
  },
  {
    "pitch": 67,
    "start": 15.079,
    "end": 15.172,
    "velocity": 43
  },
  {
    "pitch": 55,
    "start": 15.102,
    "end": 15.241,
    "velocity": 68
  },
  {
    "pitch": 53,
    "start": 15.195,
    "end": 15.369,
    "velocity": 52
  },
  {
    "pitch": 49,
    "start": 15.52,
    "end": 15.916,
    "velocity": 77
  }
]