[
  {
    "pitch": 67,
    "start": 0.104,
    "end": 0.743,
    "velocity": 80
  },
  {
    "pitch": 68,
    "start": 0.952,
    "end": 1.068,
    "velocity": 37
  },
  {
    "pitch": 71,
    "start": 1.324,
    "end": 1.637,
    "velocity": 90
  },
  {
    "pitch": 68,
    "start": 2.474,
    "end": 2.59,
    "velocity": 65
  },
  {
    "pitch": 65,
    "start": 2.59,
    "end": 2.718,
    "velocity": 65
  },
  {
    "pitch": 61,
    "start": 2.927,
    "end": 3.345,
    "velocity": 70
  },
  {
    "pitch": 60,
    "start": 3.345,
    "end": 3.438,
    "velocity": 62
  },
  {
    "pitch": 57,
    "start": 3.426,
    "end": 3.566,
    "velocity": 53
  },
  {
    "pitch": 66,
    "start": 4.02,
    "end": 4.252,
    "velocity": 79
  },
  {
    "pitch": 63,
    "start": 4.252,
    "end": 4.635,
    "velocity": 68
  },
  {
    "pitch": 61,
    "start": 4.635,
    "end": 4.937,
    "velocity": 94
  },
  {
    "pitch": 72,
    "start": 5.935,
    "end": 6.041,
    "velocity": 72
  },
  {
    "pitch": 70,
    "start": 6.041,
    "end": 6.296,
    "velocity": 38
  },
  {
    "pitch": 63,
    "start": 6.296,
    "end": 6.494,
    "velocity": 44
  },
  {
    "pitch": 68,
    "start": 6.494,
    "end": 6.587,
    "velocity": 57
  },
  {
    "pitch": 62,
    "start": 6.842,
    "end": 6.97,
    "velocity": 59
  },
  {
    "pitch": 64,
    "start": 6.958,
    "end": 7.283,
    "velocity": 77
  },
  {
    "pitch": 66,
    "start": 7.283,
    "end": 7.388,
    "velocity": 68
  },
  {
    "pitch": 71,
    "start": 7.852,
    "end": 7.981,
    "velocity": 55
  },
  {
    "pitch": 68,
    "start": 7.981,
    "end": 8.132,
    "velocity": 50
  },
  {
    "pitch": 64,
    "start": 8.132,
    "end": 8.318,
    "velocity": 55
  },
  {
    "pitch": 69,
    "start": 9.026,
    "end": 9.142,
    "velocity": 68
  }
]